/* XPM */
static char * Untitled_xpm[] = {
"64 64 474 2",
"  	c None",
". 	c #F8F8F8",
"+ 	c #E0E0E0",
"@ 	c #000000",
"# 	c #060606",
"$ 	c #0D0E0E",
"% 	c #121213",
"& 	c #282828",
"* 	c #2B2B2B",
"= 	c #2A2A2A",
"- 	c #292929",
"; 	c #262626",
"> 	c #2C2C2C",
", 	c #323231",
"' 	c #232323",
") 	c #151515",
"! 	c #101010",
"~ 	c #0B0B0B",
"{ 	c #262627",
"] 	c #38393C",
"^ 	c #3D3E41",
"/ 	c #474748",
"( 	c #424243",
"_ 	c #39393B",
": 	c #3F3E3C",
"< 	c #4C4C4B",
"[ 	c #515151",
"} 	c #4D4D4D",
"| 	c #3F3F3D",
"1 	c #373838",
"2 	c #444546",
"3 	c #3B3D3F",
"4 	c #353637",
"5 	c #232424",
"6 	c #010101",
"7 	c #020202",
"8 	c #0F0F0F",
"9 	c #212121",
"0 	c #2F3030",
"a 	c #383939",
"b 	c #303233",
"c 	c #33363A",
"d 	c #35373C",
"e 	c #35373B",
"f 	c #3C3D3F",
"g 	c #3E3F3F",
"h 	c #42413F",
"i 	c #4D4D4C",
"j 	c #434341",
"k 	c #3D3D3D",
"l 	c #3C3E40",
"m 	c #373A3E",
"n 	c #36383D",
"o 	c #36383C",
"p 	c #303235",
"q 	c #393B3B",
"r 	c #313131",
"s 	c #202020",
"t 	c #070707",
"u 	c #1B1C1C",
"v 	c #313232",
"w 	c #333434",
"x 	c #373938",
"y 	c #303131",
"z 	c #2C2E2E",
"A 	c #292A2C",
"B 	c #252628",
"C 	c #242526",
"D 	c #1D1E1F",
"E 	c #292A2D",
"F 	c #38393B",
"G 	c #3E3E3C",
"H 	c #41403E",
"I 	c #3D3D3B",
"J 	c #393B3D",
"K 	c #2C2E30",
"L 	c #202021",
"M 	c #252527",
"N 	c #28292A",
"O 	c #272829",
"P 	c #2E2F2F",
"Q 	c #313332",
"R 	c #393A3A",
"S 	c #323232",
"T 	c #2D2D2D",
"U 	c #171717",
"V 	c #030303",
"W 	c #090909",
"X 	c #262728",
"Y 	c #3A3B3D",
"Z 	c #363737",
"` 	c #3A3B3B",
" .	c #303231",
"..	c #292A2B",
"+.	c #232325",
"@.	c #1B1B1C",
"#.	c #232426",
"$.	c #1F2021",
"%.	c #28292C",
"&.	c #393A3D",
"*.	c #3C3C3B",
"=.	c #393A3C",
"-.	c #28292B",
";.	c #212223",
">.	c #1C1C1D",
",.	c #262628",
"'.	c #28282A",
").	c #222324",
"!.	c #2A2B2C",
"~.	c #272728",
"{.	c #323433",
"].	c #393B3A",
"^.	c #363738",
"/.	c #1D1D1D",
"(.	c #010102",
"_.	c #38393A",
":.	c #3E4044",
"<.	c #2D2F32",
"[.	c #2F3131",
"}.	c #27282A",
"|.	c #1E1E1F",
"1.	c #242426",
"2.	c #181819",
"3.	c #1B1C1D",
"4.	c #3B3C40",
"5.	c #38393D",
"6.	c #3C3D41",
"7.	c #272729",
"8.	c #212123",
"9.	c #1B1B1B",
"0.	c #2B2C2D",
"a.	c #313333",
"b.	c #303234",
"c.	c #3E4043",
"d.	c #323233",
"e.	c #0E0E0E",
"f.	c #404142",
"g.	c #404143",
"h.	c #333539",
"i.	c #1F1F20",
"j.	c #242527",
"k.	c #1A1A1B",
"l.	c #19191A",
"m.	c #343437",
"n.	c #35363B",
"o.	c #35363A",
"p.	c #202122",
"q.	c #1E1F20",
"r.	c #252627",
"s.	c #34373B",
"t.	c #434445",
"u.	c #3B3C3D",
"v.	c #141414",
"w.	c #383837",
"x.	c #323437",
"y.	c #1D1D1E",
"z.	c #222325",
"A.	c #27292A",
"B.	c #242627",
"C.	c #323536",
"D.	c #353839",
"E.	c #36373C",
"F.	c #343738",
"G.	c #333637",
"H.	c #232425",
"I.	c #262829",
"J.	c #191919",
"K.	c #262729",
"L.	c #2A2B2E",
"M.	c #36393C",
"N.	c #3E3F41",
"O.	c #3B3B3C",
"P.	c #2B2A2A",
"Q.	c #080808",
"R.	c #434343",
"S.	c #474746",
"T.	c #3E3E3D",
"U.	c #292B2C",
"V.	c #303333",
"W.	c #373B3C",
"X.	c #2F3233",
"Y.	c #343839",
"Z.	c #2C2F30",
"`.	c #333536",
" +	c #2E3030",
".+	c #2D2D30",
"++	c #2D2E2F",
"@+	c #313334",
"#+	c #323535",
"$+	c #2B2D2E",
"%+	c #2A2D2E",
"&+	c #2C2E2F",
"*+	c #252728",
"=+	c #1D1E1E",
"-+	c #27282B",
";+	c #3F3F3E",
">+	c #454544",
",+	c #363636",
"'+	c #0D0D0C",
")+	c #131313",
"!+	c #505050",
"~+	c #4A4A49",
"{+	c #3D3D3C",
"]+	c #393B3E",
"^+	c #2B2E2E",
"/+	c #3B3F40",
"(+	c #383C3D",
"_+	c #333636",
":+	c #2B2C2C",
"<+	c #36393A",
"[+	c #393C3D",
"}+	c #212323",
"|+	c #36383B",
"1+	c #4B4B4A",
"2+	c #4E4E4E",
"3+	c #111111",
"4+	c #3B3A39",
"5+	c #454443",
"6+	c #494847",
"7+	c #494948",
"8+	c #3D3C3A",
"9+	c #343538",
"0+	c #1A1B1B",
"a+	c #2A2C2D",
"b+	c #3A3D3E",
"c+	c #303030",
"d+	c #353535",
"e+	c #373737",
"f+	c #333333",
"g+	c #2C2D2D",
"h+	c #2D2E2E",
"i+	c #383B3C",
"j+	c #252526",
"k+	c #3D3D3A",
"l+	c #484746",
"m+	c #424240",
"n+	c #393938",
"o+	c #131314",
"p+	c #3A3B3C",
"q+	c #3E3F3E",
"r+	c #3C3D3C",
"s+	c #3E3D3B",
"t+	c #3E3F43",
"u+	c #2E2E30",
"v+	c #222424",
"w+	c #343434",
"x+	c #212324",
"y+	c #303133",
"z+	c #3B3B3F",
"A+	c #3F3F3C",
"B+	c #3C3C3C",
"C+	c #3F4040",
"D+	c #383A3B",
"E+	c #333435",
"F+	c #080909",
"G+	c #323436",
"H+	c #323335",
"I+	c #2F3032",
"J+	c #353639",
"K+	c #2C2D30",
"L+	c #3A3D3F",
"M+	c #161616",
"N+	c #2C2C2D",
"O+	c #2D2F30",
"P+	c #393A3E",
"Q+	c #313336",
"R+	c #343638",
"S+	c #424344",
"T+	c #2E2E2F",
"U+	c #3C3E42",
"V+	c #34363A",
"W+	c #2E2F31",
"X+	c #343539",
"Y+	c #333438",
"Z+	c #242424",
"`+	c #2F2F2F",
" @	c #323434",
".@	c #37383C",
"+@	c #292B2D",
"@@	c #393C3F",
"#@	c #242425",
"$@	c #09090A",
"%@	c #313236",
"&@	c #323336",
"*@	c #2C2D2E",
"=@	c #121212",
"-@	c #2D2E30",
";@	c #2D2E31",
">@	c #2B2D2F",
",@	c #2D2F31",
"'@	c #3D3E40",
")@	c #3A3C3B",
"!@	c #373A3B",
"~@	c #2E2E2E",
"{@	c #222222",
"]@	c #272727",
"^@	c #2D2F2F",
"/@	c #282A2B",
"(@	c #1C1D1D",
"_@	c #3E403F",
":@	c #393A39",
"<@	c #212224",
"[@	c #292C2C",
"}@	c #181818",
"|@	c #1E1E1E",
"1@	c #212122",
"2@	c #353636",
"3@	c #171718",
"4@	c #1A1A1A",
"5@	c #393D3E",
"6@	c #1C1C1C",
"7@	c #373B3B",
"8@	c #1F1F21",
"9@	c #252525",
"0@	c #323333",
"a@	c #29292B",
"b@	c #1E1F1F",
"c@	c #2E3031",
"d@	c #1F1F1F",
"e@	c #292A29",
"f@	c #343635",
"g@	c #191A1A",
"h@	c #313435",
"i@	c #222224",
"j@	c #2A2C2C",
"k@	c #383A39",
"l@	c #3B3C3C",
"m@	c #3A3E3F",
"n@	c #383938",
"o@	c #37383A",
"p@	c #2B2C2E",
"q@	c #353738",
"r@	c #323334",
"s@	c #404245",
"t@	c #181919",
"u@	c #1E2020",
"v@	c #2D2D2E",
"w@	c #313434",
"x@	c #2C2E31",
"y@	c #3E3F42",
"z@	c #222323",
"A@	c #3D3F41",
"B@	c #2A2B2D",
"C@	c #313438",
"D@	c #414244",
"E@	c #303031",
"F@	c #414243",
"G@	c #26282A",
"H@	c #1C1D1E",
"I@	c #2E3032",
"J@	c #2A2A2B",
"K@	c #313337",
"L@	c #2F3031",
"M@	c #353536",
"N@	c #383A3C",
"O@	c #3E3D3C",
"P@	c #3F3F3F",
"Q@	c #313235",
"R@	c #262828",
"S@	c #3B3B3A",
"T@	c #E1E1E1",
"U@	c #4A4A4A",
"V@	c #403F3D",
"W@	c #404040",
"X@	c #2B2C2F",
"Y@	c #2F3133",
"Z@	c #2C2D2F",
"`@	c #333437",
" #	c #434240",
".#	c #4B4B4B",
"+#	c #E2E2E2",
"@#	c #4C4B4B",
"##	c #403F3C",
"$#	c #3D3C3D",
"%#	c #3D3E42",
"&#	c #323337",
"*#	c #3B3B39",
"=#	c #E4E4E4",
"-#	c #484848",
";#	c #444342",
">#	c #40403D",
",#	c #36373B",
"'#	c #34353A",
")#	c #2D2D2F",
"!#	c #454543",
"~#	c #484847",
"{#	c #E8E8E8",
"]#	c #3D3E3F",
"^#	c #2F2F32",
"/#	c #333337",
"(#	c #2E2F32",
"_#	c #333538",
":#	c #303132",
"<#	c #2B2B2E",
"[#	c #303134",
"}#	c #3D3D3E",
"|#	c #E6E6E6",
"1#	c #363739",
"2#	c #3E3F40",
"3#	c #3B3E3F",
"4#	c #202022",
"5#	c #E5E6E6",
"6#	c #040404",
"7#	c #333738",
"8#	c #2E3033",
"9#	c #424345",
"0#	c #E7E7E7",
"a#	c #2E3132",
"b#	c #2B2E2F",
"c#	c #393C40",
"d#	c #414346",
"e#	c #1E1E20",
"f#	c #2D3031",
"g#	c #2C2E2D",
"h#	c #3C3D3D",
"i#	c #2E2F30",
"j#	c #1D1D1F",
"k#	c #363A3B",
"l#	c #171818",
"m#	c #262727",
"n#	c #2D2F2E",
"o#	c #3C4041",
"p#	c #313536",
"q#	c #2E3131",
"r#	c #333534",
"s#	c #2C2D2C",
"t#	c #3B3C3B",
"u#	c #29292A",
"v#	c #383A3D",
"w#	c #303336",
"x#	c #3A3B3F",
"y#	c #232526",
"z#	c #35393A",
"A#	c #282A2D",
"B#	c #2A2B2B",
"C#	c #434345",
"D#	c #35373A",
"E#	c #323438",
"F#	c #323338",
"G#	c #2F3033",
"H#	c #454546",
"I#	c #3C3C3D",
"J#	c #3E3E40",
"K#	c #3A3C3E",
"L#	c #3A3B3E",
"M#	c #2F3132",
"N#	c #333439",
"O#	c #38383B",
"P#	c #3D3E3E",
"Q#	c #3A3A3A",
"R#	c #40403E",
"S#	c #3D3C39",
"T#	c #3E3D3A",
"U#	c #39393C",
"V#	c #41403C",
"W#	c #444442",
"X#	c #050505",
"Y#	c #484747",
"Z#	c #4F4F4F",
"`#	c #464544",
" $	c #3A3A3C",
".$	c #292C2D",
"+$	c #444341",
"@$	c #414141",
"#$	c #272726",
"$$	c #323435",
"%$	c #3C3C3E",
"&$	c #303236",
"*$	c #2D2D2C",
"=$	c #3B3C3E",
"-$	c #2A2C2E",
";$	c #383838",
">$	c #3B3D40",
",$	c #373739",
". + + + + + + + + + + + + + + + + + + + + + + + + + + + + + + + + + + + + + + + + + + + + + + + + + + + + + + + + + + + + + + + ",
"+ @ @ @ @ @ @ @ @ @ @ @ @ @ @ @ @ @ @ @ @ @ @ @ @ @ @ @ @ @ @ @ @ @ @ @ @ @ @ @ @ @ @ @ @ @ @ @ @ @ @ @ @ @ @ @ @ @ @ @ @ @ @ @ ",
"+ @ @ @ @ @ @ @ @ @ @ @ @ @ @ @ @ @ @ @ @ @ @ @ @ @ @ @ @ @ @ @ @ @ @ @ @ @ @ @ @ @ @ @ @ @ @ @ @ @ @ @ @ @ @ @ @ @ @ @ @ @ @ @ ",
"+ @ @ @ @ @ @ @ @ @ @ @ @ @ @ @ @ @ @ @ @ @ @ @ @ @ @ @ @ @ @ @ @ @ @ @ @ @ @ @ @ @ @ @ @ @ @ @ @ @ @ @ @ @ @ @ @ @ @ @ @ @ @ @ ",
"+ @ @ @ @ @ @ @ @ @ @ @ @ @ @ @ @ @ @ @ @ @ @ @ @ @ @ @ @ @ @ @ @ @ @ @ @ @ @ @ @ @ @ @ @ @ @ @ @ @ @ @ @ @ @ @ @ @ @ @ @ @ @ @ ",
"+ @ @ @ @ @ @ @ @ @ @ @ @ @ @ @ @ @ @ @ @ @ @ @ @ @ @ @ @ @ @ @ @ @ @ @ @ @ @ @ @ @ @ @ @ @ @ @ @ @ @ @ @ @ @ @ @ @ @ @ @ @ @ @ ",
"+ @ @ @ @ @ @ @ @ @ @ @ @ @ @ @ @ @ @ @ @ @ @ @ @ @ @ @ @ @ @ @ @ @ @ @ @ @ @ @ @ @ @ @ @ @ @ @ @ @ @ @ @ @ @ @ @ @ @ @ @ @ @ @ ",
"+ @ @ @ @ @ @ @ @ @ @ @ @ @ @ @ @ @ @ @ @ @ @ @ @ @ @ @ @ @ @ @ @ @ @ @ @ @ @ @ @ @ @ @ @ @ @ @ @ @ @ @ @ @ @ @ @ @ @ @ @ @ @ @ ",
"+ @ @ @ @ @ @ @ @ @ @ @ @ @ @ @ @ @ @ @ @ @ @ @ @ @ @ @ @ @ @ @ @ @ @ @ @ @ @ @ @ @ @ @ @ @ @ @ @ @ @ @ @ @ @ @ @ @ @ @ @ @ @ @ ",
"+ @ @ @ @ @ @ @ @ @ @ @ @ @ @ @ @ @ @ @ @ @ @ @ @ @ @ @ @ @ @ @ @ @ @ @ @ @ @ @ @ @ @ @ @ @ @ @ @ @ @ @ @ @ @ @ @ @ @ @ @ @ @ @ ",
"+ @ @ @ @ @ @ @ @ @ @ @ @ @ @ @ @ @ @ @ @ @ @ @ @ @ @ @ @ @ @ @ @ @ @ @ @ @ @ @ @ @ @ @ @ @ @ @ @ @ @ @ @ @ @ @ @ @ @ @ @ @ @ @ ",
"+ @ @ @ @ @ @ @ @ @ @ @ @ @ @ @ @ @ @ @ @ @ @ @ @ # $ % & * = - ; > , ' ) ! ~ @ @ @ @ @ @ @ @ @ @ @ @ @ @ @ @ @ @ @ @ @ @ @ @ @ ",
"+ @ @ @ @ @ @ @ @ @ @ @ @ @ @ @ @ @ @ @ @ @ @ @ { ] ^ / ( _ : < [ } | 1 2 2 3 4 5 6 @ @ @ @ @ @ @ @ @ @ @ @ @ @ @ @ @ @ @ @ @ @ ",
"+ @ @ @ @ @ @ @ @ @ @ @ @ @ @ @ @ @ @ @ 7 8 9 0 a b c d e f g h i j k l m n o p q r s ~ @ @ @ @ @ @ @ @ @ @ @ @ @ @ @ @ @ @ @ @ ",
"+ @ @ @ @ @ @ @ @ @ @ @ @ @ @ @ @ # t u v w x y z A B C D E F G H I J K L M N O P Q R S T U V V @ @ @ @ @ @ @ @ @ @ @ @ @ @ @ @ ",
"+ @ @ @ @ @ @ @ @ @ @ @ @ @ @ W X Y Z `  .X ..+.@.O #.@.U $.%.&.*.=.-.;.U >.,.'.$.).!.~.{.].a ^./.7 @ @ @ @ @ @ @ @ @ @ @ @ @ @ ",
"+ @ @ @ @ @ @ @ @ @ @ @ @ (.@._.:.<.[...C }.X >.U |.1.2.U 3.M 4.5.6.7.>.U @.1.8.U 9.7.}.X 0.a.b.c.d.e.@ @ @ @ @ @ @ @ @ @ @ @ @ ",
"+ @ @ @ @ @ @ @ @ @ @ @ ~ = f.g.h.B -.$.U i.j.>.U k.#.l.U u j.m.n.o.,.k.U @.M 9.U @.1.p.U q.A r.s.t.u.9 6 @ @ @ @ @ @ @ @ @ @ @ ",
"+ @ @ @ @ @ @ @ @ @ @ v.w.*.J x.j.'.M y.U 2.+.i.U u z.A.B.C.D.x.E.h.F.G.H.I.#.u U y.1.J.U $.K...L.M.N.O.P.Q.@ @ @ @ @ @ @ @ @ @ ",
"+ @ @ @ @ @ @ @ @ @ 9.R.S.T.f j.U u M i.U U ;.U.V.W.X.Y.Z.G.`. +.+++@+#+$+D.%+Y.&+*+;.U U H.M =+U -+N.;+>+,+'+@ @ @ @ @ @ @ @ @ ",
"+ @ @ @ @ @ @ @ @ )+R.!+~+{+]+j.U U i.+.3.^+W./+(+_+++:+> T T T > T T T T * :+@+<+[+C.}+y.j.q.U U 1.|+G 1+2+k 3+@ @ @ @ @ @ @ @ ",
"+ @ @ @ @ @ @ @ U 4+5+6+7+8+9+M >.U 0+&+a+b+F.0 > T r c+d+,+c+r e+r f+d+f+c+c+T g+h+#+i+U.B J.U @.j+9+k+1+l+m+n+! @ @ @ @ @ @ @ ",
"+ @ @ @ @ @ @ o+u.p+q+r+s+s+t+u+H.v+A.i+&+:+T r w+w+* 9 3+@ @ @ @ @ @ @ v.9 ; w+w+r T T 0.<+x+k.;.y+z+A+I B+C+D+E+t @ @ @ @ @ @ ",
"+ @ @ @ @ @ F+_.t.|+G+H+I+Y 5.J+K+L+b :+T r w+- J.@ @ @ @ @ @ @ @ @ @ @ @ @ @ @ M+* w+r T N+O+G.-.P+o.^ Q+R+D+]+S+T+7 @ @ @ @ @ ",
"+ @ @ @ @ 6 ++U+V+j.>.p.j.W+X+E.Y+@+T c+w+Z+W @ @ @ @ @ @ @ @ @ @ @ @ @ @ @ @ @ @ @ t & w+`+T  @Y+E..@H+1.8.q.+@@@c.#@@ @ @ @ @ ",
"+ @ @ @ @ $@g.U.A ;.U U D B %@&@*@T r * e.@ @ @ @ @ @ @ @ @ @ @ @ @ @ @ @ @ @ @ @ @ @ @ =@T r T -@X+;@1.>.U U r.>@,@'@t @ @ @ @ ",
"+ @ @ @ @ 9 )@!.K.K.0+U J.G.!@h+~@S {@@ @ @ @ @ @ @ @ @ @ @ @ @ @ @ @ @ @ @ @ @ @ @ @ @ @ 7 ]@f+T ^@!@/@U U (@A ,.!._@M+@ @ @ @ ",
"+ @ @ @ Q.:@ +<@;.C 1.D [@O+P ~@w+}@@ @ @ @ @ @ @ @ @ @ @ @ @ @ @ @ @ @ @ @ @ @ @ @ @ @ @ @ @ |@c+T b $+$.D K.+.1@O Q 2@7 @ @ @ ",
"+ @ @ @ ~.w 0.3@U 4@8./@5@h+~@w+}@@ @ @ @ @ @ @ @ @ @ @ @ @ @ @ @ @ @ @ @ @ @ @ @ @ @ @ @ @ @ @ 6@S T &+7@K.8@}@U @.*@x 9@@ @ @ ",
"+ @ @ t 0@r.a@;.U U b@c@0.T w+d@@ @ @ @ @ @ @ @ @ @ @ @ @ @ @ @ @ @ @ @ @ @ @ @ @ @ @ @ @ @ @ @ @ ; r T $+a+0+U }@H.-.X a V @ @ ",
"+ @ @ e@f@-.C M p.g@h@<+> r * @ @ @ @ @ @ @ @ @ @ @ @ @ @ @ @ @ @ @ @ @ @ @ @ @ @ @ @ @ @ @ @ @ @ @ ~@`+> b+Z.k.i@r.K.j@k@' @ @ ",
"+ @ M+l@P y.4@>.;.A.m@T+~@r Q.@ @ @ @ @ @ @ @ @ @ @ @ @ @ @ @ @ @ @ @ @ @ @ @ @ @ @ @ @ @ @ @ @ @ @ ! w+T  @m@}.i@y.>.7. .n@! @ ",
"+ 6 o@w p@y.U U g@G.G.T w+6@@ @ @ @ @ @ @ @ @ @ @ @ @ @ @ @ @ @ @ @ @ @ @ @ @ @ @ @ @ @ @ @ @ @ @ @ @ ' S T 5@h@l.U U M *@q@r@@ ",
"+ 7 s@X ,.}.|.t@u@5@v@~@,+@ @ @ @ @ @ @ @ @ @ @ @ @ @ @ @ @ @ @ @ @ @ @ @ @ @ @ @ @ @ @ @ @ @ @ @ @ @ 6 r ~@w@/+=+l.p.}.,.x@y@(.",
"+ z@A@>@7.+.M H.a+`.T S {@@ @ @ @ @ @ @ @ @ @ @ @ @ @ @ @ @ @ @ @ @ @ @ @ @ @ @ @ @ @ @ @ @ @ @ @ @ @ @ {@r g+i+/@z.M r.B@C@D@4@",
"+ E@F@G@g@l.J.H@I@J@T w+@ @ @ @ @ @ @ @ @ @ @ @ @ @ @ @ @ @ @ @ @ @ @ @ @ @ @ @ @ @ @ @ @ @ @ @ @ @ @ @ 7 d+T U.,@;.@.k.i.K@F@L@",
"+ M@f -.l.U U k.c@> ~@- @ @ @ @ @ @ @ @ @ @ @ @ @ @ @ @ @ @ @ @ @ @ @ @ @ @ @ @ @ @ @ @ @ @ @ @ @ @ @ @ @ - ~@ +F.J.U U p.J+N@,+",
"+ O@P@Q@B q.g@$+@+T w+J.@ @ @ @ @ @ @ @ @ @ @ @ @ @ @ @ @ @ @ @ @ @ @ @ @ @ @ @ @ @ @ @ @ @ @ @ @ @ @ @ @ )+d+= h@R@y.+.%.^ S@;+",
"T@U@V@W@;@X@K.C.a.T e+@ @ @ @ @ @ @ @ @ @ @ @ @ @ @ @ @ @ @ @ @ @ @ @ @ @ @ @ @ @ @ @ @ @ @ @ @ @ @ @ @ @ @ w+T W.Y@7.Z@`@T. #.#",
"+#2+@###$#%#o.&#^@~@`+@ @ @ @ @ @ @ @ @ @ @ @ @ @ @ @ @ @ @ @ @ @ @ @ @ @ @ @ @ @ @ @ @ @ @ @ @ @ @ @ @ @ @ `+~@b h.o.6.*#H 2+.#",
"=#-#;#>#B+,#n.'#* `+= @ @ @ @ @ @ @ @ @ @ @ @ @ @ @ @ @ @ @ @ @ @ @ @ @ @ @ @ @ @ @ @ @ @ @ @ @ @ @ @ @ @ @ > `+)#E.n.,#S@>#!#~#",
"{#: g ]#^#/#(#_#* ~@9@@ @ @ @ @ @ @ @ @ @ @ @ @ @ @ @ @ @ @ @ @ @ @ @ @ @ @ @ @ @ @ @ @ @ @ @ @ @ @ @ @ @ @ & `+:#_#<#[#(#}#T.I ",
"|#1#2#}.8.p.K.3#:+T 9@@ @ @ @ @ @ @ @ @ @ @ @ @ @ @ @ @ @ @ @ @ @ @ @ @ @ @ @ @ @ @ @ @ @ @ @ @ @ @ @ @ @ @ Z+~@[.(+;.$.4#E Y O.",
"5#N.;@}@U U p.5@* S 6#@ @ @ @ @ @ @ @ @ @ @ @ @ @ @ @ @ @ @ @ @ @ @ @ @ @ @ @ @ @ @ @ @ @ @ @ @ @ @ @ @ @ @ 4@T h+7#J.U U y.8#9#",
"0#^ K+y.}@M+g@a#* c+v.@ @ @ @ @ @ @ @ @ @ @ @ @ @ @ @ @ @ @ @ @ @ @ @ @ @ @ @ @ @ @ @ @ @ @ @ @ @ @ @ @ @ @ 9.T :+b#}@U U $.,@A@",
"0#c#-.-.,.1.H.!@> T Z+@ @ @ @ @ @ @ @ @ @ @ @ @ @ @ @ @ @ @ @ @ @ @ @ @ @ @ @ @ @ @ @ @ @ @ @ @ @ @ @ @ @ @ ' ~@h+h@+.i@#@7.-.d#",
"+#x.N 7.;.e#>.f#g+~@Z+@ @ @ @ @ @ @ @ @ @ @ @ @ @ @ @ @ @ @ @ @ @ @ @ @ @ @ @ @ @ @ @ @ @ @ @ @ @ @ @ @ @ @ = `+c@a#@.u $.}.g#9#",
"T@h#i#j#U U t@k# @`+= @ @ @ @ @ @ @ @ @ @ @ @ @ @ @ @ @ @ @ @ @ @ @ @ @ @ @ @ @ @ @ @ @ @ @ @ @ @ @ @ @ @ @ * `+D.C.l#U U ;.f@T ",
"+ c+[.M @.k.@.C.q@~@`+@ @ @ @ @ @ @ @ @ @ @ @ @ @ @ @ @ @ @ @ @ @ @ @ @ @ @ @ @ @ @ @ @ @ @ @ @ @ @ @ @ @ @ r T [+a#@.H@p.!.].6@",
"+ m#n#a@r.z.+.O+[+> e+@ @ @ @ @ @ @ @ @ @ @ @ @ @ @ @ @ @ @ @ @ @ @ @ @ @ @ @ @ @ @ @ @ @ @ @ @ @ @ @ @ @ 7 ,+T o#/@8.+.j.N R 7 ",
"+ e.1 K.1.k.l#$.o#h+w+4@@ @ @ @ @ @ @ @ @ @ @ @ @ @ @ @ @ @ @ @ @ @ @ @ @ @ @ @ @ @ @ @ @ @ @ @ @ @ @ @ @ {@`+a.m@0+3@J.}.:+S 6 ",
"+ 6 R ++y.U U t@p#z `+~@@ @ @ @ @ @ @ @ @ @ @ @ @ @ @ @ @ @ @ @ @ @ @ @ @ @ @ @ @ @ @ @ @ @ @ @ @ @ @ @ @ c+~@&+q#l#U U 8.r#0 @ ",
"+ @ s#[.N ;.$.8.X C.> w+Q.@ @ @ @ @ @ @ @ @ @ @ @ @ @ @ @ @ @ @ @ @ @ @ @ @ @ @ @ @ @ @ @ @ @ @ @ @ @ @ =@w+N+F.C ).i@X $+t#J.@ ",
"+ @ 0@[.O M C p.$.7#u#`+- @ @ @ @ @ @ @ @ @ @ @ @ @ @ @ @ @ @ @ @ @ @ @ @ @ @ @ @ @ @ @ @ @ @ @ @ @ @ @ T ~@../@g@q.1.r.O N.}@@ ",
"+ @ 9 v#}.-.l.U U A.C.T w+! @ @ @ @ @ @ @ @ @ @ @ @ @ @ @ @ @ @ @ @ @ @ @ @ @ @ @ @ @ @ @ @ @ @ @ @ @ 9.w+> (+C U U J.7.w#^ V @ ",
"+ @ V p+x#7.U U y.y#z#P ~@T @ @ @ @ @ @ @ @ @ @ @ @ @ @ @ @ @ @ @ @ @ @ @ @ @ @ @ @ @ @ @ @ @ @ @ @ Q.w+~@^@G+H.e#@.9.A#f T+@ @ ",
"+ @ @ B#C#D#B@X B 9+E#[#> S 9@@ @ @ @ @ @ @ @ @ @ @ @ @ @ @ @ @ @ @ @ @ @ @ @ @ @ @ @ @ @ @ @ @ @ @ T `+> K@F#&@K.B G#Y H#8 @ @ ",
"+ @ @ # k I#J#K#6.L#'#'#M#T d+}@@ @ @ @ @ @ @ @ @ @ @ @ @ @ @ @ @ @ @ @ @ @ @ @ @ @ @ @ @ @ @ @ @ Z+r T b '#N#.@O#}#P#Q#w+6 @ @ ",
"+ @ @ @ & R#s+S#T#U#x#Z@m@ +T d+U @ @ @ @ @ @ @ @ @ @ @ @ @ @ @ @ @ @ @ @ @ @ @ @ @ @ @ @ @ @ @ 9@f+T ++W.B J+&.V# #W#;+U @ @ @ ",
"+ @ @ @ X#B+!+1+I D#K.).@+O+= `+B+) @ @ @ @ @ @ @ @ @ @ @ @ @ @ @ @ @ @ @ @ @ @ @ @ @ @ @ @ @ ]@f+T ++A.D q.M Y@| Y#Z#r 6 @ @ @ ",
"+ @ @ @ @ }@-#`# $Z@8.U l#a+G.= ~@w+}@@ @ @ @ @ @ @ @ @ @ @ @ @ @ @ @ @ @ @ @ @ @ @ @ @ @ @ ' f+T u#C..$U U D -@I#+$@$t @ @ @ @ ",
"+ @ @ @ @ @ #$G 2#K U U (@C K.$$h+T ,+{@@ @ @ @ @ @ @ @ @ @ @ @ @ @ @ @ @ @ @ @ @ @ @ @ @ T f+T i#i+y#1.8.3@U W+=.>#s @ @ @ @ @ ",
"+ @ @ @ @ @ V T %$&$B r.M +.H@F.b+P T S > t @ @ @ @ @ @ @ @ @ @ @ @ @ @ @ @ @ @ @ @ @ =@f+c+T a.5@R@U i.j.}.-.D#F@*$6 @ @ @ @ @ ",
"+ @ @ @ @ @ @ 6#R =$-$M j.}@U D h@/+ @N+`+,+/.@ @ @ @ @ @ @ @ @ @ @ @ @ @ @ @ @ @ @ d@;$`+T D.(+A y.U U C r.x@>$,$X#@ @ @ @ @ @ "};
