/* XPM */
static char * text_scifi3_64_xpm[] = {
"64 64 315 2",
"  	c None",
". 	c #C2C2C1",
"+ 	c #AFAFAE",
"@ 	c #B6B6B6",
"# 	c #ADADAD",
"$ 	c #AFAFAF",
"% 	c #B3B3B3",
"& 	c #AAAAAA",
"* 	c #ACACAC",
"= 	c #A6A6A6",
"- 	c #A7A7A7",
"; 	c #A5A5A5",
"> 	c #AEAEAE",
", 	c #B0B0B0",
"' 	c #B7B7B7",
") 	c #B1B1B1",
"! 	c #B5B5B5",
"~ 	c #B2B2B2",
"{ 	c #ABABAB",
"] 	c #A9A9A9",
"^ 	c #A8A8A8",
"/ 	c #9B9B9A",
"( 	c #9A9A9A",
"_ 	c #9C9C9C",
": 	c #999999",
"< 	c #969696",
"[ 	c #9D9D9D",
"} 	c #989898",
"| 	c #A1A1A1",
"1 	c #A2A2A2",
"2 	c #9F9E9E",
"3 	c #A3A3A3",
"4 	c #A0A0A0",
"5 	c #A4A3A3",
"6 	c #A4A4A4",
"7 	c #9E9E9E",
"8 	c #B3B3B2",
"9 	c #BCBCBC",
"0 	c #BABABA",
"a 	c #A5A4A4",
"b 	c #787878",
"c 	c #777777",
"d 	c #717171",
"e 	c #7A7A7A",
"f 	c #727272",
"g 	c #606060",
"h 	c #686868",
"i 	c #6A6A6A",
"j 	c #696968",
"k 	c #676767",
"l 	c #686867",
"m 	c #6E6E6E",
"n 	c #737373",
"o 	c #6D6D6D",
"p 	c #6C6C6C",
"q 	c #747473",
"r 	c #757575",
"s 	c #707070",
"t 	c #696969",
"u 	c #656565",
"v 	c #616161",
"w 	c #5C5C5C",
"x 	c #646565",
"y 	c #666666",
"z 	c #5E5E5E",
"A 	c #5B5B5B",
"B 	c #5D5D5D",
"C 	c #535353",
"D 	c #5F5F5F",
"E 	c #626262",
"F 	c #646464",
"G 	c #626261",
"H 	c #646463",
"I 	c #676766",
"J 	c #6B6B6B",
"K 	c #636362",
"L 	c #6F6F6F",
"M 	c #7B7B7B",
"N 	c #797979",
"O 	c #767676",
"P 	c #636363",
"Q 	c #565656",
"R 	c #555454",
"S 	c #545454",
"T 	c #5E5E5D",
"U 	c #7D7D7C",
"V 	c #6C6C6B",
"W 	c #6A6A69",
"X 	c #6B6B6A",
"Y 	c #747474",
"Z 	c #6E6D6D",
"` 	c #626161",
" .	c #7C7C7C",
"..	c #848484",
"+.	c #5A5A5A",
"@.	c #585858",
"#.	c #555555",
"$.	c #505050",
"%.	c #575757",
"&.	c #5B5B5A",
"*.	c #545554",
"=.	c #595959",
"-.	c #525252",
";.	c #515151",
">.	c #4F4F4F",
",.	c #4E4E4E",
"'.	c #545453",
").	c #515252",
"!.	c #4A4A4A",
"~.	c #4B4B4B",
"{.	c #4D4D4D",
"].	c #666665",
"^.	c #393939",
"/.	c #818181",
"(.	c #252524",
"_.	c #1E1E1E",
":.	c #2E2E2E",
"<.	c #303030",
"[.	c #313131",
"}.	c #323231",
"|.	c #333333",
"1.	c #2B2B2B",
"2.	c #2C2C2C",
"3.	c #2F2F2F",
"4.	c #2E2E2D",
"5.	c #343434",
"6.	c #383838",
"7.	c #3F3F3F",
"8.	c #252525",
"9.	c #282828",
"0.	c #262626",
"a.	c #2D2D2D",
"b.	c #242424",
"c.	c #282827",
"d.	c #373737",
"e.	c #2A2A2A",
"f.	c #191919",
"g.	c #151515",
"h.	c #7E7E7E",
"i.	c #353534",
"j.	c #202020",
"k.	c #3A3A3A",
"l.	c #474747",
"m.	c #484848",
"n.	c #4C4C4C",
"o.	c #484747",
"p.	c #454545",
"q.	c #464646",
"r.	c #4B4B4A",
"s.	c #494949",
"t.	c #434343",
"u.	c #444443",
"v.	c #424242",
"w.	c #404040",
"x.	c #414141",
"y.	c #3B3B3B",
"z.	c #868686",
"A.	c #636262",
"B.	c #383837",
"C.	c #444444",
"D.	c #545353",
"E.	c #525151",
"F.	c #3C3C3C",
"G.	c #878787",
"H.	c #616160",
"I.	c #525251",
"J.	c #3D3D3D",
"K.	c #8A8A8A",
"L.	c #5C5B5B",
"M.	c #7F7F7F",
"N.	c #292929",
"O.	c #5A5A59",
"P.	c #60605F",
"Q.	c #838383",
"R.	c #212121",
"S.	c #3E3E3E",
"T.	c #5A595A",
"U.	c #5E5D5D",
"V.	c #1F1F1F",
"W.	c #8D8C8C",
"X.	c #6F6F6E",
"Y.	c #828282",
"Z.	c #4C4C4B",
"`.	c #595958",
" +	c #5D5C5D",
".+	c #888888",
"++	c #181818",
"@+	c #272726",
"#+	c #8B8B8B",
"$+	c #565655",
"%+	c #808080",
"&+	c #474746",
"*+	c #A1A0A0",
"=+	c #6B6A6B",
"-+	c #323232",
";+	c #20201F",
">+	c #656464",
",+	c #464645",
"'+	c #353535",
")+	c #656564",
"!+	c #666565",
"~+	c #6D6C6C",
"{+	c #2D2C2C",
"]+	c #585757",
"^+	c #555554",
"/+	c #898989",
"(+	c #222222",
"_+	c #454544",
":+	c #363636",
"<+	c #767675",
"[+	c #504F4F",
"}+	c #8D8D8D",
"|+	c #787877",
"1+	c #5F5F5E",
"2+	c #616060",
"3+	c #4A4A49",
"4+	c #535352",
"5+	c #626162",
"6+	c #706F6F",
"7+	c #575756",
"8+	c #585857",
"9+	c #373736",
"0+	c #858585",
"a+	c #4F4F4E",
"b+	c #575857",
"c+	c #232323",
"d+	c #353435",
"e+	c #434242",
"f+	c #7D7D7D",
"g+	c #1A1A1A",
"h+	c #909090",
"i+	c #676666",
"j+	c #575657",
"k+	c #585758",
"l+	c #272727",
"m+	c #6A6969",
"n+	c #5A5959",
"o+	c #333332",
"p+	c #8C8C8C",
"q+	c #3B3B3A",
"r+	c #939393",
"s+	c #737372",
"t+	c #848483",
"u+	c #565556",
"v+	c #171717",
"w+	c #8F8F8F",
"x+	c #30302F",
"y+	c #454444",
"z+	c #949494",
"A+	c #7D7C7C",
"B+	c #646364",
"C+	c #414140",
"D+	c #818180",
"E+	c #1F1E1E",
"F+	c #5B5A5A",
"G+	c #929292",
"H+	c #3F3E3F",
"I+	c #545354",
"J+	c #414041",
"K+	c #3C3C3B",
"L+	c #383737",
"M+	c #8E8E8E",
"N+	c #4D4D4C",
"O+	c #40403F",
"P+	c #807F7F",
"Q+	c #5C5C5B",
"R+	c #222221",
"S+	c #737272",
"T+	c #595858",
"U+	c #919191",
"V+	c #5D5D5C",
"W+	c #6B6A6A",
"X+	c #515050",
"Y+	c #212120",
"Z+	c #504F50",
"`+	c #8E8E8D",
" @	c #4E4D4D",
".@	c #4E4D4E",
"+@	c #5D5C5C",
"@@	c #696868",
"#@	c #3A3A39",
"$@	c #1C1C1C",
"%@	c #878786",
"&@	c #282727",
"*@	c #474647",
"=@	c #949393",
"-@	c #7A7979",
";@	c #515150",
">@	c #1D1D1C",
",@	c #7C7C7B",
"'@	c #1B1B1B",
")@	c #242524",
"!@	c #4C4B4C",
"~@	c #7A7A79",
"{@	c #5F5E5E",
"]@	c #444544",
"^@	c #717071",
"/@	c #50504F",
"(@	c #959595",
"_@	c #605F5F",
":@	c #6F6E6E",
"<@	c #838382",
"[@	c #494948",
"}@	c #393938",
"|@	c #313030",
"1@	c #919090",
"2@	c #919190",
"3@	c #939493",
"4@	c #898988",
"5@	c #717070",
"6@	c #6E6E6D",
"7@	c #70706F",
"8@	c #686767",
"9@	c #717170",
"0@	c #80807F",
". + @ # $ # # % + & * = - ; = $ > , ' % % ) ! ~ $ { = ] ^ / ( _ : < _ [ } _ | * * ; = = ; 1 2 3 [ 1 4 5 6 3 7 ; = & 8 9 0 9 - ^ ",
"a b b c d d e f g h i j k l m n o p f q r n d e d s t t u v w x y z z A B C B i h z D D E h F y y G v k z H I J K k h r e d L M ",
"- N N m s O J P y u u g v v v h k t m d m i u y y o B P A B w E v z Q R C A S T v B A w g E g E u P z v v E D P w v F d s k m U ",
"1 O O J i h o k p i E V F W X m d t O Y o O Z p t J P y D P F E g B z A D v z E P E ` A F y i k h i H D u v F z B P h J s o N  .",
"..+.@.C Q #.$.%.%.&.Q A A +.w g v *.D z D u D @.=.C =.-.-.#.@.;.;.S Q >.$.,.Q '.).$.$.;.-.w z v B =.w #.#.$.,.!.~.~.;.C {.-.A g ",
"].^.Q /./.(._.:.<.[.}.<.|.<.|.1.2.3.4.5.6.7.<.3.1.3.|.[.8.:.2.9.0.1.a.9.b.c.[.d.<.5.1.e.a.|.^.d.6.3.2.f.g.h.b c O Y M n O 7.i.C ",
": O z o t j.k.l.!.m.~.~.n.o.p.q.!.m.r.n.,.{.s.t.t.l.q.s.p.p.p.m.u.m.~.q.v.w.x.l.q.{.m.p.s.n.%.$.$.,.y.e.z.f P A.g v z D B ;.J r ",
"Y B.s.u l 9.C.;.C Q %.S C >.#.S D.>.%.C +.%.=.;.{.>.-.,.-.C S >.>.-.#.#.S ;.s.n.S #.#.E.%.C F w w C F.G.e u w D z g H.z g 5.6.I.",
"=.b.m.h y 1.q.C @.+.=.@.+.%.=.+.Q %.@.=.B Q =.@.#.-.-.-.@.@.B =.Q #.@.@.%.>.C #.;.@.#.%.w B g D S J.K.N y z L.B z D v z E e.j.;.",
"4 M.k J J N.p.S @.Q Q Q @.=.Q %.@.%.@.%.w Q %.w @.$.#.#.#.%.A A S Q %.@.#.;.$.Q Q O.#.S D v D A m.G.Y k D A z A %.D F P F P. .Q.",
"D R.!.L t 3.w.S #.+.w A +.=.=.@.=.D z B A S =.B #.%.-.@.%.I.S @.+.@.@.C S #.Q =.Q Q -.Q S =.$.S.Q.Y g w O.T.A B U.g A I y 2.V.t.",
"W.m D X.m e.m.S %.%.+.+.A =.=.@.A g v z +.=.=.=.+.%.-.+.%.%.%.S Q +.-.C @.=.w Q Q @.>.-.C !.J.Y.f v w @.#.A +.P h C b.m i S i M ",
"Y.Z.{.P W e.s.`.Q #.=.=.%.w A w D g D D w A B S Q #.C Q #.C Q @.@.%.C #.z  +O.=.@.%.C n.,.J..+f E +.=.O.%.@.z t B ++0. .z F.{.=.",
"+.@+p.u J 1.l.;.#.@.+.=.@.A w B B w +.z +.A w +.C -.,.%.Q Q #.+.%.S Q #.B +.B =.O.-.$.m.k.#+r g O.A $+=.=.&.J v 0.2.:.%+y 9._.&+",
"*+b w y k :.t.{.=.+.A v w B B =.D +.+.B B A z %.Q S C =.;.S Q #.S %.-.#.+.+.@.w =.C C.5.K.h.F A %.+.=.+.+.=+y -+6.y.|.%+k =.r %+",
"g ;+y.`.t 1.m.;.@.A v u H.z A #.A =.w =.+.+.w %.S #.A ;.S Q %.+.#.S #.-.$+B A S #.n.d..+N o v D +.w B v >+v y.,+>.x.'+c )+e.j.t.",
"M.F w !+~+{+m.;.%.=.D u y E B A w A A v )+Q =.%.+.z w #.#.=.@.@.#.Q C S #.C -.]+!.i.z.q p F y v z B D y %.'+{.C S v.'+b u !.T f ",
"Y.Q ;.k =+1.q.^+@.A A v g g z w @.=.@.P z -.%.=.=.#.A %.#.=.O.%.%.S C $.>.#.-.~.'+/+n t t J h u z v J Q (+_+w w ;.m.:+<+>+C.{.A ",
"+.9.C.)+J 1.m.%.A +.w g D B K g %.@.%.g $.[+@.+.%.S #.@.Q w B +.%.Q -.~.s.Z.l.5.}+|+p i k h p v B 1+A N.y.-.2+A #.l.B.U P 9.(+3+",
"G.Y H W i a.s.#.@.=.=.#.%.+.O.F B w @.@.C 4+#.B =.R #.C ;.A D B #.C C ~.p.S.[.K.|+P.+.g g E h 5+u Q b.J.!.C $.+.=.s.k.M >+@.f  .",
"D :.m.V 6+<.~.-.Q Q #.@.+.A w v g S @.@.7+#.@.B 8+n.-.#.S =.=.z v z A ,.S.2.z.n g 7+-.+.v g D m z 8.k.{.#.Q =.=.%.p.'+M.I 5.a.x.",
"d I.%.k i a.C.{.Q %.#.=.@.%.=.B D +.#.S #.=.A #.,.>.S S C @.@.B D z C l.9+0+o u F A %.%.,.w H @.a.v.a+%.%.Q @.=.#.~.|.e h l.C u ",
"z.G #.].].9.w.>.C S #.Q Q %.%.#.C %.A S -.S n.,.S ;.;.Q #.%.A A w =.n.'+.+f u z g =.=.@.@.D b+c+d.l.;.A B =.@.+.S {.d+|+6+n.Q u ",
"D.;+x.P K 8.e+-.S S Q %.A A #.S #.C #.D.C $.>.$.>.>.S -.#.@.=.B A ,.^.K.c y u B S =.z B D C j.6.s.>.%.B h w =.+.%.n.B.f+q e.g+w.",
"h+o g g i+0.v.>.-.Q Q Q @.%.#.#.-.=.S #.#.S -.-.C >.;.S @.+.A F @.S./+L E w z A j+z P h #.R.:+t.n.C k+D E +.B D +.{.F.K.r Q P f ",
"k F.&+v J l+v.;.S S C S %.#.#.#.#.@.S S #.-.$.-.;.$.;.%.%.w w ;.7.}+c g =.=.C S Q D m+D l+J.s.>.S %.+.A n+z v E A ,.t.}+L |.o+m.",
"F ~.Q F i :.v.S =.Q #.S Q C %.S Q =.Q C C -.C S ;.$.S Q Q Q {.^.p+Y k z Q #.C Q A p P 9.q+,.Q @.@.A #.%.#.j+@.@.+.%.p.K.f+w.x.C ",
"r+s+F E h 1.s.#.%.=.@.S %.S Q ^+Q %.@.%.;.-.S C -.C Q #.S !.6.#+r F E z @.@.S +.y v 2.v.,.%.S Q =.S #.Q Q #.Q +.@.$.q.t+|++.y i ",
"'.V.t.p J N.m.%.A z @.Q %.S +.Q %.%.@.+.S ;.S @.#.%.#.%.~.y.#+Y y P E z g z E p z N.J.$.%.=.@.Q #.=.u+%.=.@.@.@.+.;.w./.o :.v+7.",
"r+m z k j N.q.@.B A #.#.+.@.B @.+.Q =.+.Q @.%.#.#.@.#.-.v.w+c k E v E D u i d v x+y+!.#.+.=.Q @.=.B w +.=.B g w D C F.Q.6+#.L f+",
"e s.n.k E e.p.@.+.@.A Q A +.+.w A =.Q =.@.+.@.%.=.#.{.m.z+A+m E @.K y F y Y y 3.v.@.;.S @.=.%.%.+.F F z B z P w w @.J.%+X !.m.+.",
"B+l+w.D y N.v.C A w A B B w +.B A A +.+.=.A Q %.S {.C+: D+p E +.+.B k P Y u 2.q.;.%.Q #.S -.@.v F P k g D u E v z C w.e L :.E+n.",
"> Q.P I P l+v.#.A A z H.w F+%.w %.B %.A 8+Q S -.m.7.G+G.Y p Q +.=.T t m u e.t.S @.+.+.Q #.Q %.z D g P y z g D g w >.k. .n H.b /.",
"g 8.x.=.v _.H+C =.%.@.@.@.A +.D z +.=.=.I+S -.!.'+#+L J h B %.A +.v L K a.v.Q %.C D @.Q Q Q w w +.@.+.w z w v h B >.:+N I a.(+J+",
".+i #.%.@.l+S.>.Q =.Q Q w +.w w D D A =.Q S u.d.z.m E u P =.`.B g o t N.S.>.S Q @.=.%.S #.%.#.%.C C Q %.%.@.+.z #.{.'+O J #.y Y ",
"d ,+p.+.g 8.7.{.;.%.=.%.=.A z +.B g z Q S C.-+..i D w B z +.z B F A e.:+C.~.-.D %.#.,.S C %.C #.S #.C #.C A D v A n.5.N s l.u.,.",
"r.g+t.@.E c+t.{.S Q S %.A B v E D E D =.,.k.Q.P C S +.A %.@.z h +.c+6.C.~.{.$.v D Q >.-.-.-.{.C +.C a+$.%.A u D A ,.K+Y.Y 2.++L+",
"M+<+H.Q &.c+w.,.S @.#.w v P F E E D %.;.S.#+E #.,.-.@.-.S =.u w c+5.p.n.S C +.E #.~.!.N+;.>.4+=.@.{.-.>.S A !+i w ;.O+P+m Q+Y r ",
"Q 1.t.A A R+w.{.-.=.+.@.g F t i i +.-.F.G+f F+$.,.{.S =.=.B #.R.i.C.$.>.;.@.D B -.;.,.n.$.-.S S +.I.-.C C #.F s u >.v.G.S+'+(+S.",
"Y z T+F u 0.7.{.-.C A B P D o y y %.w.U+|+A @.C n.,.;.7+V+-.V.y.C.,.-.{.{.%.%.w ^++.$.>.~.;.%.#.%.#.I.;.-.A D J p v F./.W+!.A y ",
"Y.+.-.y m+8.u.$.%.Q =.v v z y y @.!.w+r F =.Q -.n.C #.v #.c+d.~.{.-.#.;.{.S %.Q w #.,.$.;.>.X+C ;.S -.;.%.=.E o L P p.G.o m.+.w ",
">._.C.E h 8.q.Q @.w B D E =.w A p.}+m E g z %.~.S %.B ;.Y+y.!.-.C #.#.C >.S +.A w -.$.{.{.>.C Q C ;.Z+-.+.z v p u =.t.M.y 9.(+q.",
"`+f v u k e.,+Q A A A w =.=.-.s.< f u z D B +.$.S F z R.k.n.Q %.+.@.7+#.>.C %.w =.$.>.-.C -.C ;.C -.#.=.B A u D =.>.5.Y B  @k r ",
"D d.w.z u l+p.#.=.A %.@.-.{.t./+e y v z v g #.#.A C 9.S.n.S B w D w #.#.#.$.C Q C ;.%.S -..@;.#.Q +.w A w E D z S l.[.Y B :.a.F.",
"m+q.$.u k 2.l.S @.+@=.Q n.w.U+P v P P F v w B @.S _.-+m.$.S +.A w %.=.;.#.#. @>.>.>.;.;.-.S S 4+#.#.@.w +.v w %.-.m.B.N D ^.x.%.",
"w+k w k @@1.l.@.A +.#.,.#@M+p z Q A D B y y L =._.[.7.~.#.S =.@.w +.A +.#.!.n.S ;.S C >.C C ;.Q A B D v z U.=.Q @.l.5.O B N+v m ",
"~.$@v.y L N.l.-.+.=.>.w.M+Y w C @.=.z A u d z (+'+t.s.,.C %.T++.w #.C Q $.!.,.I.-.=.,.S #.-.#.#.B g F E g v D @.C m.^.e @.(+g.:+",
"%@p B H.h 1.m.#.S >.C.U+O !+B +.%.A +.B i E &@-+w.n.S C C @.@.+.@.@.Q -.{.>.$.,.C $.>.>.>.C ^+Q %.+.P k u B+z v %.s.|.r 1+>.k Y ",
"m *@p.D J a.!.C m.x.=@e p u v A w A B E =.l+6.C.!.-.=.%.%.S @.+.@.+.@.%.;.,.;.;.-.;.-.>.-.#.8+S %.+.D y P g +.A +.>.^.-@T F.F.Z.",
"'._.v.E h N.p.C.J.h+r W k w P g w B F %.8.|.q.;.-.-.=.=.Q ;.S %.%.z A B $.,.C #.S -.;@C ;.S #.S A Q v D v D @.D +.,.F.f+P N.>@7.",
"} f+F v J 8.y.v.G+|+J u u B g t u P #.b.:+7.!.S =.w +.#.#.=.S %.Q w w +.@.C #.%.=.$+Q %.B =.Q w +.@.@.A +.@.=.%.%.!.'+e u G ,@h.",
";@g.7.w i '@:.U+M k g g v P F Y s %.)@'+p.!@-.+.v B =.-.C S C Q >.#.%.z A #.=.$.%.8+=.B P +.%.z A =.=.Q Q Q C A S m.:+~@u 1.j._+",
"z+c t u k 1.}+d h v A @.D F p O J N.k.m.>.S w w A +.=.#.$.@.%.@.Q S Q w +.S -.S =.=.{@K t j g w =.%.@.Q +.Q #.@.C n.|.M u -.y N ",
"z.T.#.W+y M.J J y g @.Q z J N i 9+l.]@s.S >.S =.=.A w =.-.=.-.=.w Q =.@.%.$.;.Q C $+w =.t k g =.Q %.=.@.#.%.#.w -.~.6. .u v._+w ",
"F <.n.t y E u h E =.z B P ^@J a.s.@.X+>.%.#.%.C ;.@.z E @.A #.%.%.+.A v ^+;.;.$.#.C #.%.B F A %.@.#.%.+.Q Q +.=.S >.^.M t 1.l+/@",
"(@r D h i m u F +.D v g f i 3.C.,.$.4+@.@.@.Q #.C S v J B A %.#.#.%.w g %.-.S S ;.C #.Q A D z S @.%.A D w A w &.=.s.6./.i Q o  .",
"M+k _@J :@i l z B F u ~+u 0.S.;.-.$.Q @.%.C Q #.C @.v P g z S @.=.S w +.;.S >.,.>.C '.$.@.A @.;.C @.Q B B #.$+S @.s.F./.s $.v <@",
"0++.A 6+n O t w E h g D V.2.x.m.{.m.m.n.~.~.C.l.~.n.>.%.Q $.~.>.;.>.#.$.{.~.l.m.l.p._+s.!.C.[@m.m.{.!.,.n.~.!.{.{.S.d.Y.s ,.=.1+",
"&.c+i.7.^.J.F.3.<.5.-+'@f.b.1.|.d.}@[.|.-+<.[.x+<.|.'+}@w.|.^.|.d.|.d.<.}.d.|@y.S.6.3.:.[.a.<.2.:.3.-+|.[.'+:+[.2.0.(.p.6.$@$@C+",
"& #+w+#+p+h+/+....0+0+.+p+}+}+1@r+}+w+#+p+K.z.p+}+w+w+}+w+w+U+2@w+}+`+/+}+U+G+U+3@< M+G.}+.+K.G.K.p+#+p+K.}+#+p+}+p+.+#+.+4@.+/+",
"^ r m t L L f s t y v u l u u h u i P y J o m k o v P u p h i J J P g F F E o 5@d L i+E P w u G E u E k D E E t y k u o u k 6@r ",
"3 f p y m n L s f L Q+v y u P v k t y u F p s i t F B P u =.=.=.w &.%.z A E t p o y w w D +.v B v A z v w D D z w P F i i i s b ",
"[ U c f s c n c O |+v u t J y h p c n p m f b s o r i h E B P F B %.w E w y F O 7@y u D u H.F y k P g P P y F F h 8@p b b r M.f+",
"< Y M.9@N N e M r m i i t k 9@0@%+e Y.O N Q.f+c N  .f+s i F K E w A =.B E i g 6@O s h k X.p k m p i J J k 6@h o W f O /.e n n i "};
