/* XPM */
static char * test_xpm[] = {
"64 64 27 1",
" 	c None",
".	c #000000",
"+	c #4A3918",
"@	c #523918",
"#	c #392910",
"$	c #413110",
"%	c #5A4118",
"&	c #312910",
"*	c #624A20",
"=	c #6A4A20",
"-	c #735229",
";	c #7B5A31",
">	c #010101",
",	c #183139",
"'	c #292908",
")	c #204152",
"!	c #4A1800",
"~	c #522000",
"{	c #622000",
"]	c #294A52",
"^	c #102929",
"/	c #31526A",
"(	c #5A5200",
"_	c #625A00",
":	c #837B00",
"<	c #736200",
"[	c #7B6231",
"................................................................",
"................................................................",
"................................................................",
"................................................................",
"................................................................",
"................................................................",
"................................................................",
"................................................................",
"................................................................",
"................................................................",
"................................................................",
"................................................................",
"................................................................",
"................................................................",
"................................................................",
"................................................................",
"................................................................",
"................................................................",
"................................................................",
"................................................................",
"................................................................",
"................................................................",
"................................................................",
"................................................................",
"................................................................",
"................................................................",
"................................................................",
"................................................................",
"................................................................",
"................................................................",
"................................................................",
"........................+@.........@+...........................",
".......................#$+%$.....$%+$#..........................",
".......................&#&+@+@*%+@+&#...........................",
".........................$+%*=-=*%+$............................",
".........................$@*-*;-==*@............................",
".........................&+&$%-;%$@$............................",
".........................##>&%*=&>$+............................",
".........................&+$+*=--%%+............................",
".........................&$@$>>>;=*$............................",
"..........................#&+@>@=@%&............................",
".........................,+$##'#@=@)............................",
".........................,,#+!~{*@])............................",
".........................^))$~{~+]])$.......%...................",
"........................#+,])++@)]]=@$......@...................",
".......................#$@@)))/]])=-*+.....=+...................",
".......................#+%%%)(_()=%-%+$....*$...................",
"......................#$@***@_::=-%=%@+...%@$...................",
"......................#+%=*=*_<_-=%**%@...*+....................",
"......................#+*-=-;=_[-*@%=%+..%@$....................",
"......................#$=-==-;--=%@%*@$..%+.....................",
".......................#*--%=--=*@%*%+..+@$.....................",
".......................#%=-@%===%$==@$.+@+......................",
".......................#@*-@+@@@+$-=+#+@+$......................",
".......................$+*=%$+++++=*$+$+$.......................",
"......................$@$*-%#$$$$@=%$$@$........................",
"......................+%$%=*+###$%*@##%+........................",
"......................@*$@-*$&&&+**+&#*@........................",
"......................+%++-=+#$#@=%$&#%+........................",
"......................$@@$*-@#$#%-%+&&@$........................",
"....................$+$++#*-%&#&*;*@+&+#$$......................",
"...................$@%@$%*-;=+&+=;-*%$$+%@$.....................",
"...................$+@+%=*;=*@'@*=;*=@#@+%+.....................",
".......................+-%-=-@.@-=-%-+.........................."};
