/* XPM */
static char * test02_xpm[] = {
"64 64 668 2",
"  	c None",
". 	c #000000",
"+ 	c #454C45",
"@ 	c #4C5545",
"# 	c #3F473F",
"$ 	c #323B27",
"% 	c #353E2A",
"& 	c #414836",
"* 	c #3E4532",
"= 	c #39412F",
"- 	c #363D2C",
"; 	c #353D2B",
"> 	c #343C2A",
", 	c #333A29",
"' 	c #313925",
") 	c #323A27",
"! 	c #323A28",
"~ 	c #343C29",
"{ 	c #353D2A",
"] 	c #3B422A",
"^ 	c #373E29",
"/ 	c #2E3626",
"( 	c #29311F",
"_ 	c #262F1C",
": 	c #303829",
"< 	c #515A52",
"[ 	c #707267",
"} 	c #8B9384",
"| 	c #98A090",
"1 	c #7F867E",
"2 	c #656A60",
"3 	c #595F54",
"4 	c #50574B",
"5 	c #4A5145",
"6 	c #464E40",
"7 	c #444C3D",
"8 	c #444C3E",
"9 	c #474E42",
"0 	c #3E4739",
"a 	c #3B4434",
"b 	c #343C2B",
"c 	c #2C3423",
"d 	c #283623",
"e 	c #253323",
"f 	c #22301E",
"g 	c #3D4438",
"h 	c #71776F",
"i 	c #6A6C63",
"j 	c #5E6456",
"k 	c #646C61",
"l 	c #676F5F",
"m 	c #5A5F56",
"n 	c #52574E",
"o 	c #4D5248",
"p 	c #464C41",
"q 	c #404639",
"r 	c #3C4235",
"s 	c #3A4132",
"t 	c #384031",
"u 	c #363F30",
"v 	c #323C2C",
"w 	c #353E2E",
"x 	c #353F2F",
"y 	c #2F3929",
"z 	c #233120",
"A 	c #1E3120",
"B 	c #1E301F",
"C 	c #1B2B1B",
"D 	c #27321E",
"E 	c #3B442F",
"F 	c #5B6256",
"G 	c #807F77",
"H 	c #797A71",
"I 	c #8C9486",
"J 	c #626A62",
"K 	c #424839",
"L 	c #67685F",
"M 	c #686A65",
"N 	c #5C5E54",
"O 	c #495042",
"P 	c #3D4333",
"Q 	c #303927",
"R 	c #283423",
"S 	c #263122",
"T 	c #2D3828",
"U 	c #263322",
"V 	c #212F1E",
"W 	c #23301F",
"X 	c #192A19",
"Y 	c #182816",
"Z 	c #393D2F",
"` 	c #767A6E",
" .	c #8D9586",
"..	c #8A9182",
"+.	c #92998A",
"@.	c #9DA494",
"#.	c #8E9788",
"$.	c #767E6F",
"%.	c #858D7D",
"&.	c #83857D",
"*.	c #818278",
"=.	c #6E6F65",
"-.	c #5A6359",
";.	c #444D3A",
">.	c #404837",
",.	c #2E3823",
"'.	c #273222",
").	c #293424",
"!.	c #263323",
"~.	c #233020",
"{.	c #2C3424",
"].	c #152716",
"^.	c #373E31",
"/.	c #73796E",
"(.	c #8F9689",
"_.	c #8D9585",
":.	c #A1A999",
"<.	c #9DA595",
"[.	c #969E8F",
"}.	c #8A9283",
"|.	c #868B7F",
"1.	c #84867C",
"2.	c #676D66",
"3.	c #616961",
"4.	c #424B39",
"5.	c #434C3A",
"6.	c #353D26",
"7.	c #293423",
"8.	c #273322",
"9.	c #223120",
"0.	c #20301F",
"a.	c #243120",
"b.	c #162817",
"c.	c #192817",
"d.	c #353C2E",
"e.	c #6F766A",
"f.	c #899084",
"g.	c #8D9685",
"h.	c #9EA697",
"i.	c #9AA293",
"j.	c #949C8D",
"k.	c #8C9386",
"l.	c #8B9484",
"m.	c #878B7F",
"n.	c #7D7F75",
"o.	c #444E40",
"p.	c #3F4836",
"q.	c #404937",
"r.	c #333B26",
"s.	c #283321",
"t.	c #21301F",
"u.	c #202F1E",
"v.	c #1F2F1F",
"w.	c #182918",
"x.	c #1E2E1D",
"y.	c #353D2E",
"z.	c #6D7468",
"A.	c #858C80",
"B.	c #979E90",
"C.	c #90988A",
"D.	c #899183",
"E.	c #8C9484",
"F.	c #84877E",
"G.	c #7F7F77",
"H.	c #696A60",
"I.	c #596152",
"J.	c #404938",
"K.	c #48503E",
"L.	c #263220",
"M.	c #22301F",
"N.	c #1F2F1E",
"O.	c #1C2D1C",
"P.	c #1A2B1A",
"Q.	c #373E2F",
"R.	c #6A7165",
"S.	c #7E857A",
"T.	c #8B9483",
"U.	c #979F8F",
"V.	c #949C8E",
"W.	c #8F9789",
"X.	c #8D9485",
"Y.	c #899082",
"Z.	c #82827C",
"`.	c #83827A",
" +	c #73736A",
".+	c #5F675D",
"++	c #495140",
"@+	c #2F3727",
"#+	c #263020",
"$+	c #1F2E1E",
"%+	c #1E2D1C",
"&+	c #1D2C1C",
"*+	c #1B2C1B",
"=+	c #1A2A19",
"-+	c #223221",
";+	c #383F30",
">+	c #697063",
",+	c #7E8479",
"'+	c #949D8B",
")+	c #8F9687",
"!+	c #919789",
"~+	c #8D9489",
"{+	c #8E9586",
"]+	c #888E82",
"^+	c #7C7C7C",
"/+	c #767D75",
"(+	c #646B63",
"_+	c #525A52",
":+	c #414A38",
"<+	c #2E3627",
"[+	c #26311F",
"}+	c #1F301F",
"|+	c #1D2E1D",
"1+	c #1A2A1A",
"2+	c #213120",
"3+	c #373E2E",
"4+	c #686F61",
"5+	c #80867A",
"6+	c #86877E",
"7+	c #6E756B",
"8+	c #83857C",
"9+	c #7F8278",
"0+	c #767C72",
"a+	c #75766E",
"b+	c #60685C",
"c+	c #5F665D",
"d+	c #4F574A",
"e+	c #495243",
"f+	c #3F4835",
"g+	c #333C2A",
"h+	c #283523",
"i+	c #21311F",
"j+	c #1C2D1B",
"k+	c #182A19",
"l+	c #172918",
"m+	c #172917",
"n+	c #1D2C1B",
"o+	c #636960",
"p+	c #7D817B",
"q+	c #8A9282",
"r+	c #A1AA9A",
"s+	c #9CA396",
"t+	c #9DA49A",
"u+	c #91988A",
"v+	c #7D8378",
"w+	c #747B70",
"x+	c #767D72",
"y+	c #7B8075",
"z+	c #7B7F74",
"A+	c #74796F",
"B+	c #6E7168",
"C+	c #646B61",
"D+	c #5A6157",
"E+	c #4D544A",
"F+	c #434C41",
"G+	c #434B3E",
"H+	c #434B3C",
"I+	c #1D2F1E",
"J+	c #273524",
"K+	c #3E453A",
"L+	c #60655E",
"M+	c #85877D",
"N+	c #898E83",
"O+	c #80867B",
"P+	c #7C8277",
"Q+	c #71776D",
"R+	c #676E64",
"S+	c #5C6458",
"T+	c #5A6257",
"U+	c #585F54",
"V+	c #545B4F",
"W+	c #4D5448",
"X+	c #474E43",
"Y+	c #434B3F",
"Z+	c #374234",
"`+	c #2A3626",
" @	c #172817",
".@	c #1C2D1A",
"+@	c #4C5246",
"@@	c #6E6E6E",
"#@	c #83837B",
"$@	c #8F9688",
"%@	c #7F8578",
"&@	c #7A8174",
"*@	c #767C6F",
"=@	c #6E766A",
"-@	c #676F63",
";@	c #61695C",
">@	c #586053",
",@	c #555C51",
"'@	c #4F564B",
")@	c #42493E",
"!@	c #333E30",
"~@	c #243121",
"{@	c #253222",
"]@	c #212F1F",
"^@	c #1A2A18",
"/@	c #353E31",
"(@	c #83887D",
"_@	c #979F90",
":@	c #929A8B",
"<@	c #8A9183",
"[@	c #898F81",
"}@	c #81887C",
"|@	c #798074",
"1@	c #787F73",
"2@	c #73796F",
"3@	c #666D63",
"4@	c #596055",
"5@	c #4C5347",
"6@	c #353F30",
"7@	c #192919",
"8@	c #1E2F1E",
"9@	c #1B2A19",
"0@	c #384132",
"a@	c #666D62",
"b@	c #7A7E73",
"c@	c #939A8D",
"d@	c #8D9387",
"e@	c #8A9085",
"f@	c #83897E",
"g@	c #7E8379",
"h@	c #7A8076",
"i@	c #767B72",
"j@	c #696F64",
"k@	c #5A6156",
"l@	c #4A5042",
"m@	c #3E4531",
"n@	c #1A2918",
"o@	c #333C2C",
"p@	c #646B5E",
"q@	c #7C8174",
"r@	c #888B81",
"s@	c #93998D",
"t@	c #898E84",
"u@	c #858980",
"v@	c #81867C",
"w@	c #7E837A",
"x@	c #7C8077",
"y@	c #767C73",
"z@	c #70746A",
"A@	c #62685C",
"B@	c #535A4C",
"C@	c #3F4733",
"D@	c #384028",
"E@	c #232E1E",
"F@	c #1B2B1A",
"G@	c #343C2C",
"H@	c #62685B",
"I@	c #7C7F74",
"J@	c #8D9888",
"K@	c #9EA698",
"L@	c #8D948A",
"M@	c #878B82",
"N@	c #7F837A",
"O@	c #7A7F75",
"P@	c #72776D",
"Q@	c #6A7067",
"R@	c #61675C",
"S@	c #595F52",
"T@	c #4B5243",
"U@	c #3F4734",
"V@	c #303827",
"W@	c #24301E",
"X@	c #1D2D1C",
"Y@	c #373F30",
"Z@	c #5F655A",
"`@	c #74776D",
" #	c #8B412D",
".#	c #876F4D",
"+#	c #8B816D",
"@#	c #8B8E7E",
"##	c #858578",
"$#	c #787A72",
"%#	c #6C7168",
"&#	c #60685E",
"*#	c #5C6459",
"=#	c #535B50",
"-#	c #4C5448",
";#	c #3E4836",
">#	c #374028",
",#	c #27301F",
"'#	c #192B19",
")#	c #192B1A",
"!#	c #363F2F",
"~#	c #585244",
"{#	c #6E493C",
"]#	c #8A2805",
"^#	c #7F3213",
"/#	c #8F3B21",
"(#	c #833923",
"_#	c #883A25",
":#	c #803A29",
"<#	c #7A4638",
"[#	c #68493C",
"}#	c #684A3D",
"|#	c #5B3F31",
"1#	c #4A4229",
"2#	c #483B1D",
"3#	c #362B13",
"4#	c #171A03",
"5#	c #181A03",
"6#	c #1E1A03",
"7#	c #3E1F08",
"8#	c #5B2709",
"9#	c #6D2500",
"0#	c #912F08",
"a#	c #8C2B06",
"b#	c #8B2D05",
"c#	c #852A06",
"d#	c #7F2907",
"e#	c #7B290A",
"f#	c #7B2A0F",
"g#	c #73290F",
"h#	c #6A270C",
"i#	c #602105",
"j#	c #491C01",
"k#	c #4A1C02",
"l#	c #371901",
"m#	c #1D1000",
"n#	c #201000",
"o#	c #1F1100",
"p#	c #171800",
"q#	c #181800",
"r#	c #1F1800",
"s#	c #3F1900",
"t#	c #542100",
"u#	c #8E2F07",
"v#	c #792806",
"w#	c #782704",
"x#	c #7D2906",
"y#	c #7A2805",
"z#	c #762604",
"A#	c #742503",
"B#	c #6F2302",
"C#	c #6B2202",
"D#	c #622000",
"E#	c #531A00",
"F#	c #441A00",
"G#	c #311200",
"H#	c #211100",
"I#	c #161800",
"J#	c #161700",
"K#	c #1E1800",
"L#	c #3C1800",
"M#	c #4E1A00",
"N#	c #662202",
"O#	c #973208",
"P#	c #A13108",
"Q#	c #972E08",
"R#	c #892B06",
"S#	c #802805",
"T#	c #792704",
"U#	c #742603",
"V#	c #702502",
"W#	c #6D2401",
"X#	c #6A2301",
"Y#	c #672200",
"Z#	c #642100",
"`#	c #592000",
" $	c #4B1900",
".$	c #361800",
"+$	c #351901",
"@$	c #1D2008",
"#$	c #1F1F06",
"$$	c #1B1700",
"%$	c #2C1100",
"&$	c #381901",
"*$	c #491B00",
"=$	c #5E2103",
"-$	c #4E1900",
";$	c #5D2201",
">$	c #682502",
",$	c #702803",
"'$	c #732803",
")$	c #762904",
"!$	c #762805",
"~$	c #752804",
"{$	c #742803",
"]$	c #702802",
"^$	c #6A2501",
"/$	c #5F2200",
"($	c #562000",
"_$	c #481800",
":$	c #371700",
"<$	c #271301",
"[$	c #1E2007",
"}$	c #191700",
"|$	c #231301",
"1$	c #2D1A04",
"2$	c #4C1D01",
"3$	c #642305",
"4$	c #8A2908",
"5$	c #A13007",
"6$	c #712700",
"7$	c #702605",
"8$	c #582000",
"9$	c #4E1C00",
"0$	c #431A00",
"a$	c #301400",
"b$	c #2D1300",
"c$	c #2F1602",
"d$	c #2D1C04",
"e$	c #271C05",
"f$	c #201901",
"g$	c #231000",
"h$	c #1B1901",
"i$	c #212008",
"j$	c #1F1F07",
"k$	c #181700",
"l$	c #2A1200",
"m$	c #341700",
"n$	c #4C1E02",
"o$	c #632305",
"p$	c #7A2808",
"q$	c #8D2A08",
"r$	c #812B03",
"s$	c #882B06",
"t$	c #8C2D07",
"u$	c #8B2A08",
"v$	c #822908",
"w$	c #7B2807",
"x$	c #602000",
"y$	c #4E1F00",
"z$	c #381701",
"A$	c #361902",
"B$	c #2E1A03",
"C$	c #231D05",
"D$	c #1A1A02",
"E$	c #191901",
"F$	c #1A1800",
"G$	c #1E1200",
"H$	c #1D1500",
"I$	c #241700",
"J$	c #331600",
"K$	c #4F1F02",
"L$	c #652405",
"M$	c #923008",
"N$	c #902E08",
"O$	c #892C07",
"P$	c #822A08",
"Q$	c #702604",
"R$	c #5F2201",
"S$	c #461B00",
"T$	c #3E1901",
"U$	c #2C1602",
"V$	c #201A04",
"W$	c #1A1901",
"X$	c #1B1701",
"Y$	c #1A1700",
"Z$	c #221800",
"`$	c #351800",
" %	c #562202",
".%	c #6B2707",
"+%	c #8C2B08",
"@%	c #903008",
"#%	c #8D2F07",
"$%	c #8B2D06",
"%%	c #882C07",
"&%	c #872B06",
"*%	c #832A07",
"=%	c #722504",
"-%	c #672203",
";%	c #501D01",
">%	c #431A01",
",%	c #3B1901",
"'%	c #311600",
")%	c #211700",
"!%	c #191800",
"~%	c #1C1600",
"{%	c #1A1600",
"]%	c #5A2303",
"^%	c #6D2C0C",
"/%	c #872C08",
"(%	c #8E2D07",
"_%	c #842B07",
":%	c #822A07",
"<%	c #812907",
"[%	c #782806",
"}%	c #6C2403",
"|%	c #632102",
"1%	c #5B2003",
"2%	c #521D02",
"3%	c #461A01",
"4%	c #3D1800",
"5%	c #2F1500",
"6%	c #201700",
"7%	c #1B1600",
"8%	c #1B1500",
"9%	c #1C1700",
"0%	c #341800",
"a%	c #5D2506",
"b%	c #713218",
"c%	c #862B08",
"d%	c #8C2D08",
"e%	c #892B08",
"f%	c #862A08",
"g%	c #842A07",
"h%	c #802907",
"i%	c #782705",
"j%	c #662302",
"k%	c #591F01",
"l%	c #531E01",
"m%	c #4F1C01",
"n%	c #3A1700",
"o%	c #271300",
"p%	c #1D1700",
"q%	c #1C1500",
"r%	c #1C1400",
"s%	c #5D280A",
"t%	c #6F3A22",
"u%	c #7F2905",
"v%	c #8E2C08",
"w%	c #8A2A08",
"x%	c #862A07",
"y%	c #7C2806",
"z%	c #561E01",
"A%	c #461A00",
"B%	c #391800",
"C%	c #311801",
"D%	c #5D2C12",
"E%	c #724833",
"F%	c #9A303D",
"G%	c #822B15",
"H%	c #8A2A0F",
"I%	c #8E2C0A",
"J%	c #902D07",
"K%	c #8E2B04",
"L%	c #7F2901",
"M%	c #5A1E00",
"N%	c #541D00",
"O%	c #4B1C00",
"P%	c #451600",
"Q%	c #270F00",
"R%	c #281000",
"S%	c #1F0F00",
"T%	c #181600",
"U%	c #232005",
"V%	c #3C2202",
"W%	c #61402B",
"X%	c #8B8670",
"Y%	c #293523",
"Z%	c #3A412C",
"`%	c #484D3B",
" &	c #525645",
".&	c #646458",
"+&	c #6E7269",
"@&	c #717167",
"#&	c #4A4D3D",
"$&	c #494735",
"%&	c #393F27",
"&&	c #394029",
"*&	c #313829",
"=&	c #303828",
"-&	c #28301F",
";&	c #424B3A",
">&	c #414A39",
",&	c #475041",
"'&	c #646C65",
")&	c #5C645B",
"!&	c #2A3320",
"~&	c #2B3525",
"{&	c #213121",
"]&	c #323929",
"^&	c #313929",
"/&	c #2A3221",
"(&	c #323A2A",
"_&	c #2F3828",
". . . . . . . . . . . . . . . . . . . . . . . . . . . . . . . . . . . . . . . . . . . . . . . . . . . . . . . . . . . . . . . . ",
". . . . . . . . . . . . . . . . . . . . . . . . . . . . . . . . . . . . . . . . . . . . . . . . . . . . . . . . . . . . . . . . ",
". . . . . . . . . . . . . . . . . . . . . . . . . . . . . . . . . . . . . . . . . . . . . . . . . . . . . . . . . . . . . . . . ",
". . . . . . . . . . . . . . . . . . . . . . . . . . . . . . . . . . . . . . . . . . . . . . . . . . . . . . . . . . . . . . . . ",
". . . . . . . . . . . . . . . . . . . . . . . . . . . . . . . . . . . . . . . . . . . . . . . . . . . . . . . . . . . . . . . . ",
". . . . . . . . . . . . . . . . . . . . . . . . . . . . . . . . . . . . . . . . . . . . . . . . . . . . . . . . . . . . . . . . ",
". . . . . . . . . . . . . . . . . . . . . . . . . . . . . . . . . . . . . . . . . . . . . . . . . . . . . . . . . . . . . . . . ",
". . . . . . . . . . . . . . . . . . . . . . . . . . . . . . . . . . . . . . . . . . . . . . . . . . . . . . . . . . . . . . . . ",
". . . . . . . . . . . . . . . . . . . . . . . . . . . . . . . . . . . . . . . . . . . . . . . . . . . . . . . . . . . . . . . . ",
". . . . . . . . . . . . . . . . . . . . . . . . . . . . . . . . . . . . . . . . . . . . . . . . . . . . . . . . . . . . . . . . ",
". . . . . . . . . . . . . . . . . . . . . . . . . . . . . . . . . . . . . . . . . . . . . . . . . . . . . . . . . . . . . . . . ",
". . . . . . . . . . . . . . . . . . . . . . . . . . . . . . . . . . . . . . . . . . . . . . . . . . . . . . . . . . . . . . . . ",
". . . . . . . . . . . . . . . . . . . . . . . . . . . . . . . . . . . . . . . . . . . . . . . . . . . . . . . . . . . . . . . . ",
". . . . . . . . . . . . . . . . . . . . . . . . . . . . . . . . . . . . . . . . . . . . . . . . . . . . . . . . . . . . . . . . ",
". . . . . . . . . . . . . . . . . . . . . . . . . . . . . . . . . . . . . . . . . . . . . . . . . . . . . . . . . . . . . . . . ",
". . . . . . . . . . . . . . . . . . . . . . . . . . . . . . . . . . . . . . . . . . . . . . . . . . . . . . . . . . . . . . . . ",
". . . . . . . . . . . . . . . . . . . . . . . . . . . . . . . . . . . . . . . . . . . . . . . . . . . . . . . . . . . . . . . . ",
". . . . . . . . . . . . . . . . . . . . . . . . . . . . . . . . . . . . . . . . . . . . . . . . . . . . . . . . . . . . . . . . ",
". . . . . . . . . . . . . . . . . . . . . . . . . . . . . . . . . . . . . . . . . . . . . . . . . . . . . . . . . . . . . . . . ",
". . . . . . . . . . . . . . . . . . . . . . . . . . . . . . . . . . . . . . . . . . . . . . . . . . . . . . . . . . . . . . . . ",
". . . . . . . . . . . . . . . . . . . . . . . . . . . . . . . . . . . . . . . . . . . . . . . . . . . . . . . . . . . . . . . . ",
". . . . . . . . . . . . . . . . . . . . . . . . . . . . . . . . . . . . . . . . . . . . . . . . . . . . . . . . . . . . . . . . ",
". . . . . . . . . . . . . . . . . . . . . . . . . . . . . . . . . . . . . . . . . . . . . . . . . . . . . . . . . . . . . . . . ",
". . . . . . . . . . . . . . . . . . . . . . . . . . . . . . . . . . . . . . . . . . . . . . . . . . . . . . . . . . . . . . . . ",
". . . . . . . . . . . . . . . . . . . . . . . . . . . . . . . . . . . . . . . . . . . . . . . . . . . . . . . . . . . . . . . . ",
". . . . . . . . . . . . . . . . . . . . . . . . . . . . . . . . . . . . . . . . . . . . . . . . . . . . . . . . . . . . . . . . ",
". . . . . . . . . . . . . . . . . . . . . . . . . . . . . . . . . . . . . . . . . . . . . . . . . . . . . . . . . . . . . . . . ",
". . . . . . . . . . . . . . . . . . . . . . . . . . . . . . . . . . . . . . . . . . . . . . . . . . . . . . . . . . . . . . . . ",
". . . . . . . . . . . . . . . . . . . . . . . . . . . . . . . . . . . . . . . . . . . . . . . . . . . . . . . . . . . . . . . . ",
". . . . . . . . . . . . . . . . . . . . . . . . . . . . . . . . . . . . . . . . . . . . . . . . . . . . . . . . . . . . . . . . ",
". . . . . . . . . . . . . . . . . . . . + @ # $ % & * = - ; > , ' ) ! ! ~ { ] ^ / ( _ : . . . . . . . . . . . . . . . . . . . . ",
". . . . . . . . . . . . . . . . . . . . < [ } | 1 2 3 4 5 6 7 8 9 8 0 a b c d d e f g h . . . . . . . . . . . . . . . . . . . . ",
". . . . . . . . . . . . . . . . . . . . i j k l m n o p q r s t u v w x y z A B C D E F . . . . . . . . . . . . . . . . . . . . ",
". . . . . . . . . . . . . . . . . . . . G H I J K L M N O P Q R z S T y U V W X Y Z `  .. . . . . . . . . . . . . . . . . . . . ",
". . . . . . . . . . . . . . . . . . . . ..+.@.#.$.%.&.*.=.-.;.>.,.'.).!.V ~.{.].Y ^./.(.. . . . . . . . . . . . . . . . . . . . ",
". . . . . . . . . . . . . . . . . . . . _.:.<.[. .}.|.1.2.3.4.5.6.7.8.9.V 0.a.b.c.d.e.f.. . . . . . . . . . . . . . . . . . . . ",
". . . . . . . . . . . . . . . . . . . . g.h.i.j.k.l.m.n.o.J p.q.r.s.a.t.u.v.0.w.x.y.z.A.. . . . . . . . . . . . . . . . . . . . ",
". . . . . . . . . . . . . . . . . . . . g.i.B.C.D.E.F.G.H.I.J.K.r.L.M.N.u.x.O.P.9.Q.R.S.. . . . . . . . . . . . . . . . . . . . ",
". . . . . . . . . . . . . . . . . . . . T.U.V.W.X.Y.Z.`. +.+q.++@+#+$+%+%+&+*+=+-+;+>+,+. . . . . . . . . . . . . . . . . . . . ",
". . . . . . . . . . . . . . . . . . . . '+)+!+~+{+]+^+/+(+_+:+++<+[+}+|+=+P.1+X 2+3+4+5+. . . . . . . . . . . . . . . . . . . . ",
". . . . . . . . . . . . . . . . . . . . 6+T.7+8+9+0+a+2.b+c+d+e+f+g+h+i+j+k+l+m+n+;+o+p+. . . . . . . . . . . . . . . . . . . . ",
". . . . . . . . . . . . . . . . . . . . q+r+s+t+u+v+w+x+y+z+A+B+C+D+E+F+G+H+v I+X J+K+L+. . . . . . . . . . . . . . . . . . . . ",
". . . . . . . . . . . . . . . . . . . . M+N+O+P+Q+R+b+S+T+U+V+4 W+5 X+Y+Z+`+e X  @.@+@@@. . . . . . . . . . . . . . . . . . . . ",
". . . . . . . . . . . . . . . . . . . . #@$@%@&@*@=@-@;@>@,@'@)@!@~@{@]@N.|+P. @^@/@R+(@. . . . . . . . . . . . . . . . . . . . ",
". . . . . . . . . . . . . . . . . . . . 6+_@:@<@[@}@|@1@2@3@4@5@6@I+|+7@X P.|+8@9@0@a@b@. . . . . . . . . . . . . . . . . . . . ",
". . . . . . . . . . . . . . . . . . . .  .c@d@e@f@f@g@h@i@j@k@l@m@W |+*+=+P.*+X n@o@p@q@. . . . . . . . . . . . . . . . . . . . ",
". . . . . . . . . . . . . . . . . . . . r@s@t@u@v@w@x@y@z@A@B@C@D@E@*+*+F@P.X w.F@G@H@I@. . . . . . . . . . . . . . . . . . . . ",
". . . . . . . . . . . . . . . . . . . . J@K@L@M@N@O@P@Q@R@S@T@U@V@W@X@F@P.X w.w.F@Y@Z@`@. . . . . . . . . . . . . . . . . . . . ",
". . . . . . . . . . . . . . . . . . . .  #.#+#@###$#%#&#*#=#-#;#>#,#X '#)#k+k+l+C !#~#{#. . . . . . . . . . . . . . . . . . . . ",
". . . . . . . . . . . . . . . . . . . . ]#^#/#(#_#:#<#[#}#|#1#2#3#4#4#5#5#5#5#4#6#7#8#9#. . . . . . . . . . . . . . . . . . . . ",
". . . . . . . . . . . . . . . . . . . . 0#a#b#c#d#e#f#g#h#i#j#k#l#m#n#o#p#q#q#p#r#s#t#t#. . . . . . . . . . . . . . . . . . . . ",
". . . . . . . . . . . . . . . . . . . . u#v#w#x#y#z#A#B#C#D#E#F#G#H#I#J#q#q#q#p#K#L#M#N#. . . . . . . . . . . . . . . . . . . . ",
". . . . . . . . . . . . . . . . . . . . O#P#Q#R#S#T#U#V#W#X#Y#Z#`# $.$+$@$#$p#$$%$&$*$=$. . . . . . . . . . . . . . . . . . . . ",
". . . . . . . . . . . . . . . . . . . . Z#-$;$>$,$'$)$!$~${$]$^$/$($_$:$<$[$p#}$|$1$2$3$. . . . . . . . . . . . . . . . . . . . ",
". . . . . . . . . . . . . . . . . . . . 4$5$6$7$8$9$0$L#a$b$c$d$e$f$g$h$i$j$k$}$l$m$n$o$. . . . . . . . . . . . . . . . . . . . ",
". . . . . . . . . . . . . . . . . . . . p$q$r$s$t$u$v$w$x$y$z$A$B$C$j$D$E$F$G$H$I$J$K$L$. . . . . . . . . . . . . . . . . . . . ",
". . . . . . . . . . . . . . . . . . . . 4$M$N$0#N$t$O$P$Q$R$S$T$l#U$V$W$X$Y$}$}$Z$`$ %.%. . . . . . . . . . . . . . . . . . . . ",
". . . . . . . . . . . . . . . . . . . . +%@%#%$%%%&%*%y#=%-%;%>%,%'%)%!%Y$~%{%!%$$m$]%^%. . . . . . . . . . . . . . . . . . . . ",
". . . . . . . . . . . . . . . . . . . . /%(%%%_%:%<%[%}%|%1%2%3%4%5%6%Y$7%8%Y$Y$9%0%a%b%. . . . . . . . . . . . . . . . . . . . ",
". . . . . . . . . . . . . . . . . . . . c%d%e%f%g%h%i%j%k%l%m%0$n%o%p%q%r%q%q%{%$$0%s%t%. . . . . . . . . . . . . . . . . . . . ",
". . . . . . . . . . . . . . . . . . . . u%+%v%+%w%x%y%N#z%9$A%B%:$m#q#q#q#!%}$q#$$C%D%E%. . . . . . . . . . . . . . . . . . . . ",
". . . . . . . . . . . . . . . . . . . . F%G%H%I%J%K%L%=%M%N%O%P%Q%R%I#}$S%T%S%p#U%V%W%X%. . . . . . . . . . . . . . . . . . . . ",
". . . . . . . . . . . . . . . . . . . . Y%Z%`% &.&+&@&#&$&%&&&*&=&-&( {.;&>&J.,&'&)&!&|+. . . . . . . . . . . . . . . . . . . . ",
". . . . . . . . . . . . . . . . . . . . ~&~&~&{&{&~&{&]&~&{&^&^&~&~&{&-&/&(&_&~&{&~&{&{&. . . . . . . . . . . . . . . . . . . . "};
