/* XPM */
static char *aeb3e494ca03452ae482e01eb683c1eeeMeZk73PJkIfiGcU[] = {
/* columns rows colors chars-per-pixel */
"64 64 108 2 ",
"   c #011101",
".  c #0A1A0A",
"X  c #101E0E",
"o  c #132313",
"O  c #192515",
"+  c #1A2915",
"@  c #1D2B1B",
"#  c #222616",
"$  c #222B1B",
"%  c #2A2D1C",
"&  c #23301D",
"*  c #253321",
"=  c #2C3422",
"-  c #2D3926",
";  c #2E3B2C",
":  c #333625",
">  c #303B26",
",  c #333C2A",
"<  c #3A3C2C",
"1  c #333F30",
"2  c #37412E",
"3  c #39412D",
"4  c #364234",
"5  c #3D4534",
"6  c #3B4639",
"7  c #3E493B",
"8  c #42432A",
"9  c #4D452A",
"0  c #444735",
"q  c #424936",
"w  c #4D4B35",
"e  c #444D3D",
"r  c #4B4E3C",
"t  c #544D36",
"y  c #47503F",
"u  c #4C523D",
"i  c #55533C",
"p  c #58533D",
"a  c #454E41",
"s  c #455143",
"d  c #4B5344",
"f  c #4E5649",
"g  c #4F584B",
"h  c #525543",
"j  c #545945",
"k  c #5B5B46",
"l  c #50564B",
"z  c #525A4C",
"x  c #585D4D",
"c  c #555D52",
"v  c #585E52",
"b  c #625E44",
"n  c #615D4B",
"m  c #5A604D",
"M  c #576053",
"N  c #5A6255",
"B  c #5D655A",
"V  c #66624B",
"C  c #606454",
"Z  c #646855",
"A  c #61665B",
"S  c #62685D",
"D  c #686A5E",
"F  c #656B62",
"G  c #696D64",
"H  c #6B7065",
"J  c #6D7269",
"K  c #72756C",
"L  c #73796D",
"P  c #767A71",
"I  c #7B7E73",
"U  c #798174",
"Y  c #7B8377",
"T  c #7D8176",
"R  c #7F8379",
"E  c #7F8578",
"W  c #7F8579",
"Q  c #7F877B",
"!  c #818578",
"~  c #81877A",
"^  c #81877B",
"/  c #83877D",
"(  c #83897D",
")  c #81897F",
"_  c #878B7F",
"`  c #838981",
"'  c #858B81",
"]  c #878B81",
"[  c #878D81",
"{  c #898D81",
"}  c #898F85",
"|  c #8B8F85",
" . c #899181",
".. c #8B9185",
"X. c #8B9387",
"o. c #8D9587",
"O. c #8F9587",
"+. c #8F9789",
"@. c #8F978B",
"#. c #91978B",
"$. c #93978B",
"%. c #939B8B",
"&. c #93998D",
"*. c #959D8D",
"=. c #979F91",
"-. c #97A08F",
";. c #9AA293",
":. c #99A195",
/* pixels */
"A B e B F S G F v l N c B B B B A S x F B d l z c B N S B S A l S x A S f M S S G G F d B d B B A A B F N S z G A d x B N N B c ",
"o . o o X . X o . X . X . o X X . . . . .   . X . X . . .   . . o . . . . o o X . X . . o X o X . X . . . . o . . . . . o o . . ",
"% O % O % # @ # @ # @ % O % % % $ % % @ $ $ @ + @ % $ $ # $ % # % O % O % # @ # $ # + % O % O # $ $ % $ % o @ O $ # $ $ # $ % # ",
": , : % < % = = : : : , % : , - : : : : : : % = : = % : : = % = : , : % , % : = - : = = = : : : : : : : = : = % : % % : = = % : ",
"= : = : , = = : = - = : : , , = : : : = ; : , = : : = = = = = = = : = : : - = , = : = : ; : 1 = : : , = % : , = , : = = = = = : ",
". d - q 6 5 q 5 q e , 1 e q 0 e 4 4 2 - q < , : , * - - : - - - , 6 q = 0 , e , 7 q 5 7 4 - e q q e 4 q , 3 q a 3 < 4 e 3 , 3 4 ",
"c ;.{ &.$.+.%.%.:.*.=.+.%.+.$.$.X.%.%.$.=.X.-.} O.-.+.X.} { X.] %.%.$.] $.X.$.%.*.$.:.%.%.:.+.@.X.$.%.X.%.%.*.X.#.+.%.%.O.O.X. .",
"d O.~ ( ~ I E ~ ~ E } ( ` ` I U E U U Y Y P ] I { { L I U P J P R E ~ ~ ! ] Y Y ~ ( ..I / } ` ] ~ Y ! ( P U Y ~ ( L ] E U U E P ",
"6 I K K I K G s a F K I P P J c a G J H K P J c a F K K K H G s s B J L R P L N d J L L / ! G v g F J F P J G v f F P J P K P F ",
"; G B G P J ; . . . S P P F ; . . . F K K J ; . . X v K K F ; . . . B H J J ; . . . N J I K ; . . . B P K J ; . . . B J J J K G ",
"1 L B s K c . .   . @ L J c . .   . @ J P d . .   . @ P K z . .   . @ J S c . .   . @ I K c . .   . @ J J c . .   . @ P L A c F ",
"4 ~ 0 A J a o     . o P I a o     . o K J a o     . o K F 7 o     . o P P a o     . o P J d o     . o P K a o     . o J K t A S ",
"4 E v B P F ; * X $ a J K H , & . @ a K K F 4 $ X @ a K G N , & . @ s P J J , & . @ a K K J , % X @ a ~ K H , * . @ s G K N k F ",
"6 ` h w P K H s < s P J G K K s 5 s K H K K F d , a I F F F F f 4 s J I P I J s 5 s I G I J G s , a I P G G H s 5 s K L G h i C ",
"4 E k F J K K I I I P J J J J P K K G G J K J K K J I J A S J J ~ K P K K L J K I I L K P P G P P P K F J F L P ~ P N J G V x F ",
"4 E S h G G K K K K K J G S J G v F B F J J N K G J K J F F J F F G K F J J F F J K ~ K J K G J S J B B A A J J G L D J K S i k ",
"4 P u N H J G F J J N f 7 B J H F J N l 7 B F J F H A g 7 F G G H G B g 7 B S K J H N g 7 B L L H J N g q S F B H J J I J e N N ",
"4 J M B J S F G G J ; . . . B F F B ; . . . B K A S ; . . . M F A F ; . . . B G B S ; . . . B F F F ; . . . N z N H J J G c k l ",
"- L k h K L G B N f . .   . @ J F s . .   . @ F J c . .   . @ F K s . .   . @ J K d . .   . @ D F f . .   . @ M B J J J K V s z ",
"; Q k Z G J B N F , o     . o F B 6 o     . o G H e o     . o G J s o     . o G J 4 o     . o S N a o     . o M H F F J H p H z ",
": ~ S K F K B l F F , & . @ e F D B > & . @ s B B N , & . @ s N F G , $ X & a J F B , $ X @ s B N B , $ . $ s F S F G S D i H z ",
"; I A J J G G B B J G s 5 s J B B B D d < s D F B c G s 3 s H B F v J s < s I F K B S d 2 s J B S F S s 5 d J G N F H F D A H m ",
"; K D K G J J J B B F J L H G G B F S J J F F J S S B J U A x c c B B G K K J G G G H G P F S B F J S J P F J S c S N M F V G N ",
", K G J G G G J H F B S M N F J H B B B G B N H S B x M B M l M B A F J F J J G G K H H B B B B N J G G c S F B c B H F B B G m ",
"- K F F G F N f 6 S N F B B N d 6 M B B B B N s 6 x x B B g g e 4 v B A G S A z a N J J S B N f 7 A c B N S B e 6 N G J F B B c ",
"- H B P F J , . . . c S F B , . . . M m N B ; . . . M c S B - . . . N B F C ; . . . N c F B - . . . B A N B - . . . N N J J J d ",
"- P J J B z . .   . @ B S s . .   . @ B F s . .   . @ M x s . .   . @ B G r . .   . @ S B a . .   . @ M B f . .   . @ F N F B z ",
"& B F H B 4 o     . o B N 6 o     . + F F 7 o     . o B B 4 o     . o l k 7 o     . o A A a o     . o B M 6 o     . o F M H F u ",
"$ F G F B S , & . $ s z B N , & X @ y N m B , & . $ s m N B , & X @ s c B B , $ . $ s B S N , & . @ s M S N , & X @ u H G F F x ",
"$ F B J J F G d 3 s S c M N F s 2 s S B S m S d 3 s F N N N S s 3 s F m B S F d 3 s S N A M A s 3 s N m N M G d 2 s G H S F B c ",
"* H M F J B S J L H N N M c c F J B N M N N M F J F N c z c c S L H H B N B J K L J N B B A c F J B z M M M H K U G B B B F S v ",
"* H B B B B S c z B g B c c c x j M M M M M c z N c c B c z N c B S N N B B B B S N M c c c N c x c c f c c F S B S c S S B B x ",
"- J B B S M B M B N d s 4 M z c g N z e 4 N c f z B l s 4 M d N B F B s a l c B N M z s 4 N M c N d z e 4 c B F F B S H A H H M ",
"1 F B m B B N c B c ; . . . N c z c ; . . . N B A v ; . . . c M B B - . . . N F S B ; . . . N c N B ; . . . B S F B S A D B H B ",
"* H B B A i m M N a . .   . @ M c a . .   . @ B g a . .   . @ B M f . .   . @ F K c . .   . @ x M e . .   . @ F B A B B B B B N ",
"@ H F B B j S A N 4 o     . o S F 4 o     . o M N 4 o     . o M B s o     . o F F 6 o     . o N c 6 o     . + H F B S B S B G z ",
"* J B N S x B B B M > & . @ s B F B , $ X @ y c c N , $ . $ s z N M 3 $ . @ s S B N , $ X @ e N x N , & X @ y F S B B B B B M d ",
"* P z M c z B S B M S s 3 s D F N S F d 3 s B N c c S d 3 s A g c B A d 3 s S M B S F d 3 s F c N N G s 5 s D G A F B M B M B z ",
"- H M M c z z F N c B G J S z c M M z G J A c c c z c G F M z g c c N J J A M c g N B F L F B c x c c F J B F F F A B M B B S z ",
"; S M c c c c c N x B c f g z f c g c c B B z x M M N c g d f g c z N S c c c c N N N c c N f d N f g c f c S B A A B N m B z u ",
"* F c z z c c a 4 c z c s z f a 4 m B A A B M e 2 c M z c f f e 4 z M M c z f 7 4 N c c z c z 7 4 z z c c S v s 7 A Z B B B N e ",
"* F N c N N - . . . c c q N ; . . . v c N S - . . . c c z c - . . . N N B c ; . . . c c c c ; . . . c c c N - . . . B B B N d y ",
"* J B c v g . .   . @ j c a . .   . @ B c s . .   . @ M z 7 . .   . @ B A a . .   . @ c c e . .   . @ v N a . .   . @ B N c z 7 ",
"$ F c x S 4 o     . o y N 6 o     . o B N 4 o     . o B c 4 o     . o z c 4 o     . o c c 4 o     . o z c 4 o     . o B c z z e ",
"$ G v v g z , $ . $ s s c v , $ . @ a N c c , $ . $ s x d v , $ . @ y N B M , $ . $ a c c z , $ . @ a z c v , & X @ e N M N c e ",
"@ F k e c g F s 3 s B y f z S s 5 s B c c c A d 3 s B B x c S d 4 s S d M N F a 5 s H z c d A d 3 s B z f c S s 3 s F c c k j e ",
"@ G n v z z z G J B z l z c x S H M g f c l d G F v g c g f c S J M c z N c c G G A S c f z f S J B g l d g M S K B c B B b f 7 ",
"$ v A d f s g s z z l d d c M y l z c f d d f s c g c z f z f z c d g z f c d f s f z z z f s z c z d c z c M s m B N z m n 8 6 ",
"$ S w h c s d d z z f 7 1 c g s g x c a 4 z g d z l d e 4 f g z c c z 7 6 c c f f d s e 4 x d f f d d e 6 M c s l x z B z t f e ",
"@ B n z z f z d l z - . . . x s s c ; . . . c g s z ; . . . c g N c - . . . c z d N ; . . . z q d c - . . . M z x M g B N N z s ",
"@ A x h c z f d c e . .   . @ g d q . .   . @ f d a . .   . @ d N a . .   . $ z c q . .   . @ z e 7 . .   . @ c c c z S c h r 6 ",
"@ x x l z c c c B , o     . o f f 4 o     . o f d 1 o     . o g c 1 o     . o c c 4 o     . o c f , o     . o c z z m z N n c 4 ",
"O d S r z c c f v M , $ . $ a f d x , & . $ e d c z , $ X $ y m f x , $ X @ e c c v , & X @ s c z z , $ X @ y c z s z d f S r , ",
"@ z 8 q d d z l d g D s 3 s N c e d A s 3 s B s e l S d 3 s B d a d A d 3 s m z g l F d < d A s d f D s 3 s A z z g z 0 d 9 a 6 ",
"o x 0 q 6 v c f d d f A G v f f f y d A J z z y e s l S H B h f y d e A H B d c c c a S J z s f l f d S H M c d d e e s z 5 d e ",
"O z h , 7 s l q z l g z f f f z d l z d - 7 s f d d h d s y d d e r s s d s z z d l c z f l c a f c d f g f z d z d z y e f y , ",
"o c 4 4 r 5 q 4 e q e q e e y q 5 e e , q , q 6 3 3 4 6 6 2 7 6 q 5 q e 6 3 0 e e q e e 5 q e 7 r e 5 6 7 e q u e q 5 q q 5 6 - ",
". + X o . . . X X . . . . X . . . . . . o . . . . . . . . . . . . . . . . . . . . . . . . . . . . . . . . . X . . .   . . . . . ",
". , + @ - * @ @ , & @ + * $ - * - - o & * $ * * @ = $ - O - $ @ o o o o o o o + O $ @ & O O & @ - - = - + + & o + $ + $ o @ * o ",
"% $ # @ # O @ @ + O O @ $ @ $ $ O $ @ $ @ $ O $ $ O O O o O X $ % % @ + O O O @ O o O % @ @ @ # O @ O @ O @ O # $ O O + O o o % ",
": : = - : $ : % : : % : < < < < : < : % < : = : : : % = % $ $ : : : - : : % : = : : % * , < < < : < , % < , = : : : % % % & % : ",
": < : : : : 3 , : = & : , 5 < < , < : = , % : : : % : : % , $ < : < : : : : < - : = : : , 0 < , < < : = : - : : < : % : % : % : ",
"$ X @ @ @ O o + . @ o @ o @ o O . @ o o X . . + o o O X X X o X O O o + o @ @ O o @ o o O O @ O o o o o + X @ . X + o o + $ + o ",
"F S d A F F J G B c A B S B F S F G v G B z N M B A B F B F F x J N A G z B S G F J G f F z S S G S S F S F x J F g M S A A A B "
};
