/* XPM */
static char *duke01[] = {
/* columns rows colors chars-per-pixel */
"64 64 256 2 ",
"   c black",
".  c blue",
"X  c green",
"o  c red",
"O  c cyan",
"+  c yellow",
"@  c magenta",
"#  c white",
"$  c #7B7B7B",
"%  c #7B7B7B",
"&  c #7B7B7B",
"*  c #7B7B7B",
"=  c #7B7B7B",
"-  c #7B7B7B",
";  c #7B7B7B",
":  c #7B7B7B",
">  c #7B7B7B",
",  c #7B7B7B",
"<  c #7B7B7B",
"1  c #7B7B7B",
"2  c #7B7B7B",
"3  c #7B7B7B",
"4  c #7B7B7B",
"5  c #7B7B7B",
"6  c #7B7B7B",
"7  c #7B7B7B",
"8  c #7B7B7B",
"9  c #7B7B7B",
"0  c #7B7B7B",
"q  c #7B7B7B",
"w  c #7B7B7B",
"e  c #7B7B7B",
"r  c #7B7B7B",
"t  c #7B7B7B",
"y  c #7B7B7B",
"u  c #7B7B7B",
"i  c #7B7B7B",
"p  c #7B7B7B",
"a  c #7B7B7B",
"s  c #7B7B7B",
"d  c #7B7B7B",
"f  c #7B7B7B",
"g  c #7B7B7B",
"h  c #7B7B7B",
"j  c #7B7B7B",
"k  c #7B7B7B",
"l  c #7B7B7B",
"z  c #7B7B7B",
"x  c #7B7B7B",
"c  c #7B7B7B",
"v  c #7B7B7B",
"b  c #7B7B7B",
"n  c #7B7B7B",
"m  c #7B7B7B",
"M  c #7B7B7B",
"N  c #7B7B7B",
"B  c #7B7B7B",
"V  c #7B7B7B",
"C  c #7B7B7B",
"Z  c #7B7B7B",
"A  c #7B7B7B",
"S  c #7B7B7B",
"D  c #7B7B7B",
"F  c #7B7B7B",
"G  c #7B7B7B",
"H  c #7B7B7B",
"J  c #7B7B7B",
"K  c #7B7B7B",
"L  c #7B7B7B",
"P  c #7B7B7B",
"I  c #7B7B7B",
"U  c #7B7B7B",
"Y  c #7B7B7B",
"T  c #7B7B7B",
"R  c #7B7B7B",
"E  c #7B7B7B",
"W  c #7B7B7B",
"Q  c #7B7B7B",
"!  c #7B7B7B",
"~  c #7B7B7B",
"^  c #7B7B7B",
"/  c #7B7B7B",
"(  c #7B7B7B",
")  c #7B7B7B",
"_  c #7B7B7B",
"`  c #7B7B7B",
"'  c #7B7B7B",
"]  c #7B7B7B",
"[  c #7B7B7B",
"{  c #7B7B7B",
"}  c #7B7B7B",
"|  c #7B7B7B",
" . c #7B7B7B",
".. c #7B7B7B",
"X. c #7B7B7B",
"o. c #7B7B7B",
"O. c #7B7B7B",
"+. c #7B7B7B",
"@. c #7B7B7B",
"#. c #7B7B7B",
"$. c #7B7B7B",
"%. c #7B7B7B",
"&. c #7B7B7B",
"*. c #7B7B7B",
"=. c #7B7B7B",
"-. c #7B7B7B",
";. c #7B7B7B",
":. c #7B7B7B",
">. c #7B7B7B",
",. c #7B7B7B",
"<. c #7B7B7B",
"1. c #7B7B7B",
"2. c #7B7B7B",
"3. c #7B7B7B",
"4. c #7B7B7B",
"5. c #7B7B7B",
"6. c #7B7B7B",
"7. c #7B7B7B",
"8. c #7B7B7B",
"9. c #7B7B7B",
"0. c #7B7B7B",
"q. c #7B7B7B",
"w. c #7B7B7B",
"e. c #7B7B7B",
"r. c #7B7B7B",
"t. c #7B7B7B",
"y. c #7B7B7B",
"u. c #7B7B7B",
"i. c #7B7B7B",
"p. c #7B7B7B",
"a. c #7B7B7B",
"s. c #7B7B7B",
"d. c #7B7B7B",
"f. c #7B7B7B",
"g. c #7B7B7B",
"h. c #7B7B7B",
"j. c #7B7B7B",
"k. c #7B7B7B",
"l. c #7B7B7B",
"z. c #7B7B7B",
"x. c #7B7B7B",
"c. c #7B7B7B",
"v. c #7B7B7B",
"b. c #7B7B7B",
"n. c #7B7B7B",
"m. c #7B7B7B",
"M. c #7B7B7B",
"N. c #7B7B7B",
"B. c #7B7B7B",
"V. c #7B7B7B",
"C. c #7B7B7B",
"Z. c #7B7B7B",
"A. c #7B7B7B",
"S. c #7B7B7B",
"D. c #7B7B7B",
"F. c #7B7B7B",
"G. c #7B7B7B",
"H. c #7B7B7B",
"J. c #7B7B7B",
"K. c #7B7B7B",
"L. c #7B7B7B",
"P. c #7B7B7B",
"I. c #7B7B7B",
"U. c #7B7B7B",
"Y. c #7B7B7B",
"T. c #7B7B7B",
"R. c #7B7B7B",
"E. c #7B7B7B",
"W. c #7B7B7B",
"Q. c #7B7B7B",
"!. c #7B7B7B",
"~. c #7B7B7B",
"^. c #7B7B7B",
"/. c #7B7B7B",
"(. c #7B7B7B",
"). c #7B7B7B",
"_. c #7B7B7B",
"`. c #7B7B7B",
"'. c #7B7B7B",
"]. c #7B7B7B",
"[. c #7B7B7B",
"{. c #7B7B7B",
"}. c #7B7B7B",
"|. c #7B7B7B",
" X c #7B7B7B",
".X c #7B7B7B",
"XX c #7B7B7B",
"oX c #7B7B7B",
"OX c #7B7B7B",
"+X c #7B7B7B",
"@X c #7B7B7B",
"#X c #7B7B7B",
"$X c #7B7B7B",
"%X c #7B7B7B",
"&X c #7B7B7B",
"*X c #7B7B7B",
"=X c #7B7B7B",
"-X c #7B7B7B",
";X c #7B7B7B",
":X c #7B7B7B",
">X c #7B7B7B",
",X c #7B7B7B",
"<X c #7B7B7B",
"1X c #7B7B7B",
"2X c #7B7B7B",
"3X c #7B7B7B",
"4X c #7B7B7B",
"5X c #7B7B7B",
"6X c #7B7B7B",
"7X c #7B7B7B",
"8X c #7B7B7B",
"9X c #7B7B7B",
"0X c #7B7B7B",
"qX c #7B7B7B",
"wX c #7B7B7B",
"eX c #8B9C52",
"rX c #BDBD10",
"tX c #83837B",
"yX c #BDAC10",
"uX c #C5BD10",
"iX c #A4AC9C",
"pX c #948B6A",
"aX c #838B7B",
"sX c #ACA408",
"dX c #737B73",
"fX c #949C8B",
"gX c #D5CD10",
"hX c #8B9483",
"jX c #AC9C83",
"kX c #ACB4A4",
"lX c #8B6A39",
"zX c #A49C08",
"xX c #73736A",
"cX c #ACB4AC",
"vX c #C5D5C5",
"bX c #9C9408",
"nX c #C5BD8B",
"mX c #949C94",
"MX c #B4BDAC",
"NX c #C5C594",
"BX c #DED510",
"VX c #BDAC8B",
"CX c #BDC5B4",
"ZX c #ACA48B",
"AX c #525A52",
"SX c #837B00",
"DX c #BDB494",
"FX c #738341",
"GX c #BDB483",
"HX c #947341",
"JX c #5A6252",
"KX c #7B6231",
"LX c #949473",
"PX c #9C9C7B",
"IX c #948B00",
"UX c #626A62",
/* pixels */
"aXkXkXkXkXkXkXkXkXkXkXkXcXCXCXCXCXCXCXCXCXCXCXCXCXCXCXCXCXCXcXCXCXcXkXkXCXcXkXkXkXkXkXkXkXkXkXcXCXcXcXkXkXkXkXkXkXkXkXkXiXiXiXiX",
"hXZXGXGXGXGXGXGXGXGXGXGXGXGXGXGXGXGXGXGXZXGXjXjXjXjXPXPXLXLXpXkXcXdXxXxXxXxXxXxXxXxXxXxXxXxXxXxXxXxXxXxXxXxXxXdXdXdXdXxXxXxXxXmX",
"hXsXrXyXuXrXyXrXuXyXyXyXuXuXrXyXuXrXrXuXyXsXyXuXyXyXrXrXsXsXyXGXcXtXdXdXdXtXdXdXtXtXxXdXtXaXxXtXtXdXxXtXxXdXxXtXdXxXdXtXxXxXJXmX",
"hXsXuXrXgXuXrXrXuXyXyXyXrXrXrXyXrXrXrXrXyXsXyXuXuXuXuXuXuXrXuXGXCXhXaXaXhXhXhXhXhXdXxXxXdXdXxXdXxXdXxXdXxXxXxXaXdXdXaXfXxXtXAXmX",
"hXsXuXrXgXrXuXuXuXrXuXrXuXrXuXyXuXuXuXrXrXyXrXuXuXuXrXuXuXyXuXGXCXhXaXaXaXaXhXhXhXtXxXtXtXhXxXhXhXtXdXtXdXdXxXaXtXtXdXfXxXtXJXmX",
"hXsXuXrXuXyXgXuXgXrXuXrXgXrXrXyXrXyXgXgXuXyXuXgXgXuXrXyXuXuXyXZXCXaXhXhXtXhXaXfXmXmXxXhXtXdXdXdXxXaXtXhXaXaXtXhXaXfXtXhXxXhXUXmX",
"hXsXuXyXuXyXuXrXrXyXuXuXgXuXuXyXuXuXgXgXuXyXuXrXrXuXuXyXuXuXyXZXCXaXhXhXtXhXaXaXaXhXdXhXaXfXtXhXfXfXtXhXaXtXdXtXtXhXdXaXdXhXUXmX",
"mXsXyXsXsXzXsXyXrXyXrXrXuXyXyXyXuXrXBXgXuXuXrXuXuXrXrXyXrXrXsXGXCXtXtXtXtXtXtXhXaXtXhXhXaXtXdXdXhXfXtXhXaXtXdXtXtXxXxXxXUXUXxXmX",
"mXsXrXsXrXyXrXyXrXrXrXrXrXuXrXuXuXuXBXgXrXrXyXyXyXrXyXsXyXrXsXGXCXtXtXtXdXtXdXdXdXtXtXdXhXaXtXaXhXmXtXhXdXdXdXdXdXdXdXdXxXdXxXmX",
"mXzXuXrXgXyXgXrXrXyXrXuXuXuXyXuXuXuXgXuXrXuXyXrXuXuXuXrXuXgXrXZXCXaXhXfXtXhXaXhXaXdXhXhXhXhXtXhXhXmXtXhXaXtXdXtXdXhXtXhXdXhXxXmX",
"mXzXuXyXrXyXrXyXsXyXyXyXyXyXsXsXsXyXyXyXyXyXyXyXyXyXrXrXrXrXuXGXCXhXaXaXtXaXtXxXxXtXdXdXtXdXdXdXdXdXdXdXxXxXdXxXxXtXdXtXxXaXxXmX",
"mXsXyXrXuXyXuXuXuXyXuXuXuXuXyXrXuXuXuXuXuXuXrXuXuXrXrXyXrXrXuXGXCXhXaXaXtXaXhXhXhXtXhXhXaXtXdXdXaXtXdXhXhXtXtXtXtXtXdXaXdXdXxXmX",
"mXsXyXyXyXyXyXrXuXuXuXuXuXgXrXuXgXuXBXgXuXuXuXuXuXsXyXyXyXyXuXGXCXhXdXdXdXdXdXhXhXaXhXhXfXhXaXhXhXmXtXhXhXhXtXhXtXxXUXtXUXUXxXiX",
"mXsXyXrXuXyXuXrXyXyXrXrXrXuXrXuXrXuXuXyXyXyXyXyXrXrXyXyXrXrXuXGXCXhXaXaXtXtXhXtXtXtXtXtXaXhXaXhXtXfXaXdXdXdXdXdXtXdXdXaXdXdXxXiX",
"mXsXyXyXyXsXyXyXyXyXyXsXyXrXrXrXrXrXrXrXyXrXuXuXuXuXuXrXuXuXuXGXCXhXhXhXtXaXhXhXhXhXhXaXhXtXtXaXtXtXtXtXtXtXtXtXdXdXdXaXxXdXdXiX",
"mXzXyXrXuXyXuXuXuXuXuXrXrXrXyXrXrXrXrXuXyXuXuXuXuXuXrXyXrXrXuXGXCXhXaXaXtXtXaXaXaXaXaXtXtXtXtXtXtXtXtXtXaXaXaXtXtXtXdXaXtXdXdXiX",
"mXsXrXuXuXuXuXuXBXBXBXuXuXrXrXrXrXrXrXgXuXgXBXBXBXgXgXuXgXgXuXGXCXhXfXfXhXhXfXmXmXmXmXaXaXtXaXaXaXaXhXhXhXfXfXhXtXaXtXaXaXtXdXiX",
"mXsXsXyXrXsXrXrXuXuXuXuXrXrXrXrXrXrXrXuXrXuXuXuXuXuXrXrXuXrXuXGXCXhXhXhXtXhXhXhXfXfXfXaXhXtXtXtXtXtXaXhXhXhXaXtXtXhXdXhXtXtXdXiX",
"mXsXyXyXyXyXyXyXyXyXyXyXyXrXyXyXrXrXrXrXyXrXrXrXrXrXrXrXrXrXuXGXCXhXaXaXaXaXaXaXaXaXaXdXtXtXtXaXaXaXaXtXdXdXdXdXdXdXdXaXdXdXtXiX",
"mXzXyXrXuXyXuXuXyXyXyXyXyXuXrXuXuXuXuXuXrXrXrXrXrXuXuXrXuXuXuXGXCXhXhXhXtXhXhXaXaXaXaXaXhXhXtXhXaXhXhXtXtXdXdXdXtXdXdXhXdXdXdXiX",
"mXsXzXzXyXsXzXyXrXyXrXuXrXuXuXuXuXuXBXgXuXuXuXuXuXyXsXyXyXsXrXGXCXhXdXxXtXdXdXhXhXhXhXhXfXfXhXhXhXmXaXhXhXaXtXtXtXUXxXtXUXxXtXiX",
"mXsXyXrXuXsXrXuXuXyXuXuXuXuXrXuXuXuXuXuXuXuXyXrXuXuXrXyXuXrXuXGXCXhXaXaXtXaXaXhXtXtXhXaXhXhXtXaXhXhXtXhXaXtXtXtXtXdXdXaXdXdXtXiX",
"mXsXyXsXrXsXyXsXsXsXyXsXyXyXyXyXrXsXyXyXyXyXyXyXyXrXrXrXuXuXuXGXCXhXhXaXtXtXtXtXtXdXtXtXtXxXxXxXdXxXxXtXdXdXtXxXxXdXdXtXxXtXdXiX",
"mXzXuXrXuXyXgXrXrXsXrXuXrXuXyXuXuXuXgXuXrXuXrXyXrXuXuXrXgXuXuXGXcXtXhXhXaXhXaXtXtXtXaXtXaXhXtXhXhXfXtXaXtXtXtXxXxXhXtXhXtXhXtXiX",
"mXsXuXyXyXzXrXsXsXyXyXsXrXuXyXuXgXuXBXuXyXyXrXyXrXrXuXyXuXuXrXGXcXtXaXhXtXhXaXhXhXtXhXhXhXhXaXhXhXmXaXhXtXtXtXdXdXtXdXtXxXaXdXiX",
"hXsXyXsXsXsXyXyXrXrXrXrXuXyXyXsXuXrXgXuXuXuXrXrXuXsXzXzXzXzXzXGXcXdXxXxXxXxXdXaXtXtXaXaXhXaXtXtXhXfXaXhXtXtXtXtXdXxXUXUXUXUXxXiX",
"hXsXuXyXuXyXuXyXrXyXrXrXgXuXrXyXuXuXuXuXuXyXrXyXuXuXuXrXuXuXrXGXcXtXhXhXaXhXaXhXhXaXaXhXaXhXtXhXhXhXaXhXaXtXdXtXdXhXtXtXtXhXtXiX",
"hXsXuXyXuXsXgXuXuXyXuXrXuXsXrXsXyXrXuXuXuXyXgXuXBXuXuXrXuXuXrXGXkXtXhXfXaXhXaXmXfXmXtXhXaXaXtXtXtXhXaXhXaXtXtXhXtXhXtXaXtXhXtXiX",
"hXsXrXyXuXyXuXuXuXyXyXyXuXyXrXyXrXrXuXrXrXyXuXuXgXuXuXrXuXrXuXGXkXaXaXhXhXhXhXhXhXhXtXhXtXtXtXdXdXhXtXhXtXtXxXhXhXhXdXhXtXtXdXiX",
"hXsXyXyXuXuXsXsXrXyXsXsXsXsXyXzXyXrXyXyXyXyXyXuXrXrXuXuXuXrXuXGXkXaXaXhXhXhXtXtXaXdXdXdXtXaXtXaXtXtXxXdXxXxXxXaXdXdXtXhXtXtXtXiX",
"hXsXyXyXrXrXyXyXuXyXyXsXuXrXrXyXrXrXrXrXyXyXrXuXrXuXuXuXuXyXuXGXkXtXtXaXaXhXtXtXhXhXdXtXtXhXtXaXhXhXdXaXdXdXdXhXdXdXtXaXdXdXdXiX",
"hXbXIXIXIXIXSXSXIXSXIXSXIXIXIXIXzXzXbXzXbXzXzXsXzXsXyXyXsXsXyXGXkXdXdXdXdXdXxXxXxXUXxXUXUXUXUXUXUXUXUXUXJXUXAXJXAXAXAXAXAXAXJXmX",
"hXDXVXVXVXVXVXVXVXVXVXVXVXDXDXDXDXnXnXnXDXnXnXnXnXnXnXnXnXnXGXvXvXkXkXkXkXkXcXkXkXkXkXiXiXiXkXkXkXiXiXiXiXiXiXiXiXmXmXmXmXmXmXiX",
"hXiXhXhXhXhXhXhXhXhXhXhXhXhXhXaXaXhXaXaXaXaXtXhXtXtXtXtXdXtXtXkXDXzXbXbXbXzXbXbXzXbXbXbXzXbXbXbXbXbXHXbXHXbXHXbXHXlXbXbXbXbXeXkX",
"hXmXtXtXhXtXxXdXtXdXdXdXhXtXhXtXtXtXtXtXtXtXaXhXtXtXaXhXaXtXaXiXGXrXrXrXuXrXyXrXuXuXyXrXrXuXyXyXsXsXyXrXsXyXsXrXsXzXsXuXyXyXyXcX",
"hXmXtXdXhXaXdXdXhXdXdXdXtXdXtXhXhXtXhXtXdXdXdXaXhXhXhXhXhXaXaXiXGXuXuXuXuXuXuXuXuXyXsXyXsXyXuXuXrXrXrXsXzXsXzXuXyXyXyXuXyXrXyXcX",
"hXmXtXdXtXtXtXdXhXtXtXtXhXtXhXdXdXdXdXtXhXdXhXaXaXtXhXaXhXtXhXiXGXuXrXuXrXuXuXuXuXuXsXuXyXrXyXzXzXsXbXyXsXyXsXuXyXrXyXuXyXyXyXcX",
"hXmXhXdXtXdXhXtXhXtXtXtXfXtXhXtXtXtXtXtXhXtXhXhXfXhXhXtXhXhXtXiXnXrXuXgXrXuXuXBXgXgXyXuXrXuXrXyXyXyXsXuXrXuXyXuXyXuXyXrXyXuXyXcX",
"hXmXhXdXaXdXhXaXhXdXtXtXhXtXhXdXdXdXdXtXhXtXtXhXfXhXhXtXhXhXtXiXnXrXuXgXrXuXuXgXuXyXrXuXrXuXrXyXsXsXsXuXyXrXzXuXyXuXyXrXsXuXyXcX",
"hXmXxXxXxXxXxXxXxXdXxXxXtXtXhXhXaXtXtXhXdXdXdXdXtXtXdXdXdXtXdXiXnXyXyXsXsXsXyXyXyXsXyXyXrXgXrXuXuXyXuXrXsXsXyXsXbXbXIXbXIXbXzXcX",
"hXmXhXtXtXdXaXtXaXtXaXhXhXtXhXhXaXtXhXhXhXhXtXaXhXhXaXtXhXhXtXiXnXrXuXuXyXrXrXuXuXyXuXuXuXgXuXuXuXrXrXuXuXuXrXuXrXuXyXrXsXuXyXcX",
"hXmXhXdXtXdXaXdXdXdXdXdXaXtXhXhXtXtXtXaXtXtXdXtXtXtXhXtXhXhXtXiXnXrXuXuXrXuXrXrXsXsXyXsXyXuXrXuXuXyXyXyXzXsXyXzXzXuXyXrXsXuXyXcX",
"hXmXtXtXtXdXtXtXtXdXtXtXtXdXdXtXdXdXdXtXtXtXtXtXtXaXtXtXaXhXtXiXnXrXuXrXyXrXuXyXsXyXyXyXyXyXsXyXsXzXzXyXsXsXyXsXsXrXzXyXsXrXsXcX",
"hXmXtXtXtXdXtXdXxXdXxXxXtXaXhXhXaXtXhXaXtXtXdXtXtXaXaXtXhXhXaXiXnXuXuXuXyXrXrXrXyXsXyXyXyXuXyXrXuXyXyXyXsXzXyXzXzXyXsXyXsXzXzXcX",
"hXmXdXxXdXdXdXtXtXaXtXtXaXtXhXhXaXtXhXhXhXhXaXhXhXtXdXdXdXdXtXiXnXrXsXyXyXsXsXuXuXuXuXuXuXgXrXuXuXrXrXyXuXrXrXrXyXzXzXsXbXbXsXcX",
"hXmXdXdXtXdXdXdXdXtXtXtXtXtXtXtXtXtXtXaXaXaXhXhXhXhXtXtXhXhXtXiXnXrXuXuXyXrXrXrXuXuXuXuXuXuXrXrXrXyXyXrXrXyXyXyXyXzXzXyXzXzXzXcX",
"hXmXdXxXdXdXxXxXxXxXxXxXxXtXtXtXtXtXtXtXdXtXtXtXtXtXtXdXtXtXaXiXnXuXrXrXyXrXyXyXyXrXrXsXrXrXrXrXrXyXrXsXsXyXyXsXsXsXzXsXbXsXsXcX",
"hXiXdXdXdXdXdXtXhXhXhXtXtXaXtXtXtXtXtXaXdXhXfXfXhXtXtXtXtXtXtXiXnXuXuXuXyXrXuXuXgXgXuXrXuXuXuXuXuXuXrXrXrXuXuXuXyXyXsXyXsXsXzXcX",
"hXiXtXdXtXdXdXtXtXaXaXtXtXhXaXaXaXaXaXtXdXhXmXmXmXhXhXaXhXhXaXiXnXuXuXuXuXuXgXuXgXgXuXyXrXyXuXuXuXuXuXrXyXuXuXrXsXyXsXyXsXzXzXcX",
"hXmXdXxXdXxXxXxXxXxXxXxXxXdXdXdXdXdXdXdXdXdXtXtXtXtXtXxXaXaXtXiXGXrXrXrXsXyXyXyXyXyXyXsXsXyXyXyXyXyXyXsXsXsXzXbXbXbXbXyXbXIXzXcX",
"hXmXtXdXtXdXtXtXaXaXtXtXhXhXhXhXhXtXtXhXaXhXhXhXhXhXhXdXhXhXaXmXGXuXuXuXyXuXuXuXuXuXuXuXuXuXuXuXuXsXrXrXrXyXyXyXyXyXsXyXyXyXsXcX",
"hXmXdXdXdXxXdXxXxXxXxXdXdXdXhXtXtXdXaXtXdXdXdXdXtXhXtXdXhXhXtXmXGXyXuXuXyXyXuXyXyXyXyXyXyXuXuXsXrXrXrXsXzXzXzXzXsXsXzXyXsXbXbXcX",
"hXmXdXdXdXdXdXdXtXdXtXtXtXdXtXtXtXdXtXhXhXhXtXaXhXtXdXdXtXtXtXmXGXyXyXyXsXsXyXrXuXyXuXuXuXuXyXsXrXyXyXsXrXrXsXyXyXbXbXsXbXbXzXkX",
"hXmXxXxXdXxXxXaXhXtXaXhXhXdXdXtXdXxXdXtXhXhXdXhXhXtXdXdXtXtXtXmXGXyXrXrXyXyXuXuXuXyXuXuXyXyXzXzXyXsXzXyXuXrXyXuXyXsXzXsXzXbXbXiX",
"hXfXdXxXdXdXtXdXdXxXxXdXdXdXtXtXdXtXtXtXdXdXxXdXdXdXaXdXaXtXtXfXGXrXrXrXyXrXyXzXzXzXzXbXsXsXsXzXsXzXsXzXbXzXzXbXIXsXsXsXbXsXsXiX",
"hXhXtXdXdXxXtXtXtXdXdXtXtXdXtXtXtXdXtXtXaXaXdXtXhXtXtXdXtXtXdXhXGXyXyXrXyXyXyXrXrXsXrXyXsXrXyXzXrXzXyXyXyXyXsXyXsXyXzXyXbXyXsXiX",
"hXhXdXxXxXxXdXxXxXxXxXxXdXdXtXtXdXxXdXtXdXdXxXdXtXdXdXxXdXdXxXhXGXzXzXsXzXsXsXyXzXzXzXsXsXrXyXzXyXsXsXzXzXzXbXbXIXzXIXbXSXzXbXiX",
"hXhXdXdXdXdXtXtXtXtXtXhXhXdXtXtXdXdXdXtXhXhXdXhXhXtXtXdXtXdXdXfXGXyXsXyXsXyXyXuXuXyXuXgXyXrXzXyXzXsXzXrXuXrXyXrXsXsXzXsXzXsXzXiX",
"hXhXdXxXdXxXdXxXUXxXxXxXtXdXdXhXhXdXhXtXdXxXtXdXxXdXdXxXtXdXxXhXGXyXzXyXzXyXzXsXzXyXzXyXzXyXyXuXrXyXuXyXsXzXsXzXIXsXbXsXIXzXzXiX",
"hXhXdXxXdXxXdXdXdXdXxXxXtXdXdXxXxXxXxXdXdXxXtXtXtXdXxXxXdXdXxXhXGXsXsXyXsXyXsXrXrXyXzXyXzXyXzXbXbXzXIXsXsXsXzXyXzXyXbXsXbXyXzXiX",
"hXfXtXdXdXxXxXdXtXxXxXxXdXdXdXtXtXdXtXtXdXxXdXtXaXaXxXdXxXxXdXhXGXzXsXsXzXzXuXuXyXsXzXsXsXsXyXuXyXyXyXyXzXzXbXyXsXzXbXyXbXzXHXiX",
"hXmXdXxXdXdXxXxXdXdXdXxXtXdXdXxXxXxXdXdXdXxXtXtXtXaXtXdXxXxXdXhXGXzXzXsXzXrXuXrXyXsXzXsXsXyXsXzXbXbXbXzXzXzXzXyXsXsXsXyXbXbXHXiX",
"hXfXxXxXxXxXdXdXdXxXxXxXdXxXdXtXtXdXtXtXxXxXxXdXtXtXdXxXxXxXxXhXGXzXbXzXbXsXyXyXsXsXbXzXbXsXzXrXsXzXsXsXbXzXIXsXzXbXIXbXIXIXlXiX",
"aXmXtXtXtXtXtXtXtXtXaXtXtXtXdXdXdXdXdXdXdXdXdXdXdXtXtXtXtXtXtXmXZXzXzXzXbXbXbXbXbXHXHXHXHXHXHXHXHXHXlXlXSXSXSXlXKXKXSXKXKXKXFXmX"
};
