/* XPM */
static char *result[] = {
/* columns rows colors chars-per-pixel */
"64 64 172 2 ",
"   c #031303",
".  c #091604",
"X  c #091904",
"o  c #051609",
"O  c #081608",
"+  c #0B1A0A",
"@  c #121800",
"#  c #181D04",
"$  c #111E0C",
"%  c #181C08",
"&  c #0C1C10",
"*  c #111E11",
"=  c #1D2503",
"-  c #13210D",
";  c #1B220C",
":  c #1E2808",
">  c #0C201C",
",  c #132313",
"<  c #192515",
"1  c #1B2815",
"2  c #162618",
"3  c #1A2618",
"4  c #16281A",
"5  c #1B2B1A",
"6  c #212604",
"7  c #222804",
"8  c #282A04",
"9  c #222B09",
"0  c #26300E",
"q  c #2B330D",
"w  c #3D3D0E",
"e  c #212514",
"r  c #202816",
"t  c #212D1D",
"y  c #292E1D",
"u  c #332910",
"i  c #332D18",
"p  c #253313",
"a  c #24321C",
"s  c #2C321D",
"d  c #2E3F19",
"f  c #102626",
"g  c #1E2C20",
"h  c #13282B",
"j  c #162C31",
"k  c #19323A",
"l  c #222E20",
"z  c #243221",
"x  c #2A3524",
"c  c #2D3926",
"v  c #243228",
"b  c #2C3728",
"n  c #2D3A29",
"m  c #313725",
"M  c #393722",
"N  c #333A25",
"B  c #343D2C",
"V  c #3A3F2D",
"C  c #2D3A32",
"Z  c #333F31",
"A  c #393F30",
"S  c #313E3A",
"D  c #433F08",
"F  c #423315",
"G  c #4B3918",
"H  c #413F2C",
"J  c #35451A",
"K  c #394120",
"L  c #36412E",
"P  c #3B422E",
"I  c #364132",
"U  c #3D4434",
"Y  c #374339",
"T  c #3C463A",
"R  c #3F493A",
"E  c #464302",
"W  c #4C4602",
"Q  c #4E4A04",
"!  c #454108",
"~  c #534C03",
"^  c #554D0A",
"/  c #5D5308",
"(  c #4F4F1E",
")  c #5A411C",
"_  c #655A00",
"`  c #6A5D01",
"'  c #615608",
"]  c #655908",
"[  c #6D6000",
"{  c #736300",
"}  c #766900",
"|  c #7A6B00",
" . c #70600C",
".. c #72680E",
"X. c #6C641E",
"o. c #756A1D",
"O. c #786C1A",
"+. c #7B701E",
"@. c #474D2D",
"#. c #5B5B29",
"$. c #424734",
"%. c #424A36",
"&. c #4A4D36",
"*. c #414739",
"=. c #434B3B",
"-. c #4B4D3C",
";. c #455037",
":. c #47503F",
">. c #4A513E",
",. c #525637",
"<. c #54593D",
"1. c #5A603F",
"2. c #646229",
"3. c #756D24",
"4. c #756C29",
"5. c #7D7322",
"6. c #72723F",
"7. c #7B763D",
"8. c #334341",
"9. c #3E4B42",
"0. c #454E42",
"q. c #494F43",
"w. c #475041",
"e. c #4B5344",
"r. c #4E5847",
"t. c #4E5649",
"y. c #4E584A",
"u. c #505647",
"i. c #535947",
"p. c #585A47",
"a. c #51564A",
"s. c #535A4C",
"d. c #585C4F",
"f. c #565E52",
"g. c #595E51",
"h. c #5C604A",
"j. c #5A6155",
"k. c #5D6559",
"l. c #606049",
"z. c #767443",
"x. c #797447",
"c. c #7C7B45",
"v. c #60665A",
"b. c #656859",
"n. c #63695E",
"m. c #646B61",
"M. c #696D64",
"N. c #6A7166",
"B. c #6C7269",
"V. c #727662",
"C. c #72766C",
"Z. c #72796C",
"A. c #767D73",
"S. c #7C7E73",
"D. c #817825",
"F. c #827E44",
"G. c #7E8162",
"H. c #7C8174",
"J. c #7D827A",
"K. c #858146",
"L. c #85824A",
"P. c #89874A",
"I. c #8C894C",
"U. c #848764",
"Y. c #878964",
"T. c #8B8C66",
"R. c #898B68",
"E. c #818578",
"W. c #878981",
"Q. c #8D9485",
"!. c #8F9589",
"~. c #959B8F",
/* pixels */
"  , & & , $ * , + + , $ - + $ + , + 2 + + 2 , * < ; + + - - $ + , , $ $ , $ - - + 2 , , , - , 2 2 < , , , - < + , , < ; , 1 3 O ",
"+ $.N I %.-.$.M V L V N -.$.$.*.L N =.$.:.m L =.-.&.%.P %.U :.:.=.&.%.P $.-.=.=.-.&.&.-.-.e.-.e.u.&.&.%.e.e.:.=.@.$.$.$.=.N =.O ",
"+ R V P U I &.*.=.t x *.$.>.P $.V N &.L e.U :.j.r.U U P P =.=.e.=.$.=.$.I *.=.=.I =.:.i.e.u.u.j.h.e.%.>.r.%.%.:.$.L =.-.V n $.+ ",
"+ -.U &.=.R y.e.t.B t c B I U =.U U V V =.q.j.-.U %.%.U $.-.*.I e.$.%.=.e.*.*.=.U =.&.%.U :.u.i.i.u.%.=.e.U < *.R $.=.-.-.-.c + ",
"+ q.L $.w.a.N.b.*.L =.$.=.=.=.U U B V Z I $.U U U U I P I P U V V I R V I U U U U R U e.$.e.U V *.U &.U R e.t.I I R w.&.=.%.-.X ",
"X U -.$.$.I s.A.*.V U L =.%.x 3 2 , 3 < 1 3 3 3 < < 5 r 1 3 1 3 3 3 3 < 1 5 < 1 3 3 5 5 < 3 1 3 < c U U =.w.=.U *.j.H.b.$.=.$.+ ",
"+ =.e.*.R r y e.$.V *.U *.x & & - , 2 , 2 $ 2 * , * , , & * , & 2 $ * , * - * * , , , , * * , , , , t U *.*.U &.t x s.k.y.*.e.X ",
"O *.I q.L s z x *.e.t.U x & , < t 5 3 5 z 3 5 z 5 5 3 5 t t 3 5 5 5 l 5 5 t 5 t 5 t 5 5 , 3 3 t 5 2 < a U e.e.e.x t B *.:.-.q.+ ",
"+ U V &.%.s c P =.*.*.c * , t 2 5 z l t 5 t t 5 g z t b 5 l 5 l < a x l 5 x 5 x 5 3 t 3 5 t 5 z 4 4 + , x U =.=.&.s $.=.=.%.*.+ ",
"+ R Z R I $.N U =.V z & , 3 t U < $ < < , , , < 1 z 5 2 2 3 5 5 z z t g z a I z , , - 4 , , , < a l 4 , < z U U P P %.%.=.=.V X ",
"+ 4 4 < 1 5 < < 2 < , & 2 t 2 L +   + t c ,   . - x z , g g t 5 t a z l 5 z L 1     , x b     $ z < z , $ , 3 2 < 1 t 1 3 < , + ",
"+ U %.*.$.U U U U U j.B t 3 2 U z & < m j.n + * , z 5 a 5 a 5 z g 1 4 4 z 5 I B - , t e.e., $ , t z 5 3 , & U *.U P $.U U R U & ",
"+ R U q.5 a t 3 z *.s.b 5 z 5 T x , 3 m j.b , - - n z 4 t 5 5 a 5 4 4 c < 4 n B 5 , t e.t., , $ x 5 t v 3 & Z a.x 5 z 5 * I %.O ",
"+ I *.n.U U L B x %.s.b , t 5 U B $ 1 B k.n , $ - x 5 , , x L b x n b 3 , x V L x + y e.t.2 , - z t , a & & A j.w.I U L t R U . ",
"+ B *.N.U P $.B b U j.b 4 a z I x , 3 n j.L , - , n 5 , z U L Z I R r.r.x 5 n c x & t e.t.< , 2 z 5 , 5 , & V j.e.L *.&.5 U *.+ ",
"O I =.k.%.U P N c U s.x 5 5 1 L x , 5 n k.I , , , x - v I x x x c n 3 I y.a n B x , a =.j.3 < , z 4 z a 5 & I k.e.P U U r *.A + ",
"+ I U n.%.L P B x =.f.b 5 5 t L c - 1 B k.B , , , n - n I R T I Z C T 2 j.3 B s a - 5 U s.4 , 1 z 2 x 5 < & Z g.=.U P U t =.U + ",
"o V U M.U U U N c U g.Z 5 l 5 R t - , t U r , , , b , n I n B c b & C 3 k.z B c x - 1 x V < , , z z z 3 5 & V j.e.L $.U r *.R + ",
"+ *.%.m.-.c P N x R d.b 5 4 3 U 5 4 . , 2   , * , a < B I T Y I n f C 5 j.g n B a + $ 4 + + 4 < 5 x 5 z 3 & U j.e.%.V U t U R   ",
"O R R N.&.R *.B c V p.x g 5 z P s < + z =.+ & & , s 4 n I B n L n j Y , j.4 B N x + 4 :.x o - , a n < 5 t $ I k.u.P U U r U V + ",
"+ U =.N.U P U B x $.d.b 5 5 V U x t + z =., + * , x > U L T Y U b k 8.< d.5 B B N - < -.b + - , 3 t 4 t 5 & %.j.e.$.U U r R U + ",
"o =.U B.U P I m x U e.b z b t U c 5 $ b I + , , , 5 1 U L n B n n h S 3 g.a n I n 1 , %.c + , 4 5 t z 5 4 + I j.a.U I U r R A + ",
"+ =.*.m.U $.$.B x U j.x a l a U B a + n w.+ , 2 - z , 0.V Y T B n > C , j.4 L I V 1 2 e.b + , , 5 t z 5 3 & U j.e.U $.U 5 T U O ",
"+ U *.k.$.$.q.N x R s.n z 5 < n L 5 o n e.+ , - , z 3 =.L n n B n & C 3 f.l n V B 1 , i.n + , , t z x 5 4 + R s.:.%.*.e.r U &.O ",
"o *.U N.U *.=.c c *.j.c , z 5 - x s & n w.+ & $ , z 5 R L n n B v b I < s.a L I U 1 5 e.x + , , a 5 < 4 5 & V v.e.U *.I t *.=.X ",
"+ R $.m.%.I L c s U f.Z 5 1 B 4 5 c + n r.$ 4 , , a < 2 j.L I I n L z L b z I I I - < e.n + , , 5 5 5 2 5 + R g.e.n *.R t U U + ",
"+ =.U n.U x =.V c U a.n 4 4 z R n B + n t.+ 4 < , x 2 4 , 9.9.R T L I n 5 t n B N 5 , t.x & , 1 z z < 5 * * U d.:.3 n =.r U U X ",
"O &.I M.:.$.$.c x I d.Z a x 4 U B B + L y.- $ + , n 4 a z x 4 5 a b v z t 5 I n L 1 , y.x + , 3 z 3 5 g 3 * A g.e.x x U 5 R I - ",
"+ Z U B.=.%.U m x U a.B 5 , t U c B + n :.+ , 2 , x t 5 z z , a a 5 z 4 5 z I L N t - &.n $ , 4 x t 3 z 3 & B k.t.n , B 1 U R & ",
"O I =.N.&.P %.N x U g.B z 3 5 I I B X n y., - 4 , n 5 5 5 g 4 4 z v z t 5 x I L y 5 < &.x + , 1 z 5 5 t , $ A k.y.T , V r U $.O ",
"+ U U n.R =.$.m x $.d.b 3 z 5 U B V + I w.> $ < , n 5 4 5 z 4 a 5 4 t , 5 z n B s t 1 e.n + 4 4 v z t g 5 , V h.=.*.*.I r U U + ",
"+ *.*.M.U =.V m x *.g.n 5 t 5 T B m X n e.- , 4 2 n 5 z , 4 5 x a 4 z z z 4 n I c < $ R z - , , a a 4 4 5 2 U k.e.U P U r =.$.+ ",
"+ B U m.I $.U B x U s.n z z z L A n + n e., - 2 , v x 5 5 t t 5 5 4 x 5 a g U B y 3 , B l * 4 , a 3 3 z 5 * I d.t.P N $.e U U + ",
"+ =.*.m.U U *.N x U g.c 5 x t U I t t $.y.n , 2 , x 4 z a 3 < 2 4 , t 5 R a x L B < B e.e., 4 < z 1 , 5 3 < U j.e.U P V e U T + ",
"O U =.m.$.U *.N x U f.b t z l T U t 5 N j.n , 4 , z 5 z t o o     o b v *.R I I A , t =.t., 4 2 z < 5 5 < * P k.=.I %.$.r *.U + ",
"+ b 5 M.V P %.m x I j.n - n t R c t 1 n k.n + 2 4 n , g j h o   a n 5 < < x e.B N , s e.t., , 4 x 4 4 4 5 $ B j.e.I $.L t Z U + ",
"+ *.2 U I $.U n x *.a.x , l z I z < < 3 x < $ , - x 4 k h   o T n t 5 4 5 4 R x x + < l 5 , , , x x a 4 , $ I j.e.U U *.t $.I + ",
"O U i.s.I U B N a R a.c 5 a , L 5 * 5 n =.U * 3 , n j k 3 + b $ t z 5 x t t a T , , z A y.z - 5 x a 4 5 , $ U j.:.V L *.5 U U + ",
"  P P j.Z B U V l U a.b 3 5 4 U 5 & < t $.$., < 2 c i 5 t   t 2 z 5 z a l l z =.* , < x -.x , 4 z 5 a g , > L s.-.V U *.3 U V + ",
"  B @.b.V B U B x U d.n 5 1 2 R l @ @ e G F ; 4 , L s z t   + a z l z 5 5 z z z I @ # u ) u - < x 4 5 v 4 - L s.w.%.U R t U U X ",
"+ U P l.U V I N n U g.x 4 < , U 5 + < t $.U * 3 , v 1 z 5 X   < g 5 z a a z , 5 L 5 1 c :.s > , z 4 4 5 t & I s.r.L V I t *.U X ",
"o *.$.h.%.I U V z R a.B 4 3 < I 5 * t m e.d.2 , , x z x a - X   n 5 a 4 z B 5 , > c y U j.L , , a 1 4 t 3 * U f.e.h.:.R 5 U I X ",
"X U U m.I *.R N n I d.x 5 z 4 U g * e s V =., 4 - c x 5 z X p   4 x 5 4 x v t 5 y - t N >.c , , z 5 3 x , , V j.e.U *.U r U I + ",
"+ I L m.P U U N n U a.B a 5 4 U 5 + @ e G F 9 2 , b 5 t z o J   X v z z t 5 5 3 , @ % u ) u , , a 4 3 3 2 $ B g.q.L *.U t =.I + ",
"  U U N.-.s.h.a.U U y.n 5 5 2 I 5 + 1 a $.*., , , v 4 z x I J a 4 t b o 3 5 z x + 2 r m a.a , , z 5 3 t 2 * A f.j.j.j.j.R *.I + ",
"X U P U $.*.%.R =.;.f.b 5 x 5 U x , r n t.k.z 3 , x 5 5 z t 5 J t - x t 2 + B n < < t =.m.I 5 4 l 3 g t * * Z $.L R =.U =.*.=.+ ",
"o =.T R U *.L =.%.U j.b l z 3 U R c , 3 z L U I , L z z c x 1 J 5 , & * 2 z n V R 5 2 5 B n =.v v c z g & * R U U $.U U *.U U X ",
"+ n.m.n.k.M.k.m.k.m.H.I 5 t z w.=.&.-.=.=.=.=.;.I L l z z z 4 p d a x z x a I =.=.;.&.*.=.=.:.;.U a 5 z n k.B.C.N.B.B.B.B.C.M.+ ",
"X k.R R U w.w.e.=.:.w.Z.U 5 z a 5 5 x 3 c z l n x z + n z z 4 , # a 5 z 5 4 z V L B b z t 4 x L c c , Y B.n.%.:.R =.=.w.=.=.k.+ ",
"o m.U B U w.U :.:.:.:.e.Z.R x 5 5 x 5 n a z x B B l C z a 4 x 5 z 5 t t 5 b B x x l a 5 t 5 4 l a t n N.k.R :.U =.U =.R U e.n.+ ",
"o M.U I =.k.H.p.=.*.*.*.R N.r.x Z Z Z Z I V I Z x L I n n L I n n L T n B I B B L I L I I n n L I L N.k.:.w.*.T w.j.Z.s.R R m.X ",
"+ m.U *.c U N.B.w.R =.:.:.w.A.m.k.m.n.m.n.m.m.k.k.k.m.m.m.m.m.k.n.m.m.m.m.m.n.n.k.m.m.m.m.k.m.n.n.Z.k.:.w.e.*.=.c U N.B.w.=.m.+ ",
"o n.=.=.5 t U -.*.I n I R U ;.=.e.%.e.f.e.I :.=.:.r.=.e.:.=.w.:.e.=.f.j.j.s.i.=.w.=.=.R :.*.=.=.e.R w.e.=.U =.U r t P e.e.=.k.& ",
"+ M.=.:.$.N B *.e.u.e.x R =.e.t.e.t.e.j.e.I :.w.=.R R R e.:.e.:.j.k.k.e.:.B L L t.R w.e.e.t.j.y.t.y.r.e.e.:.=.=.$.L M %.q.=.B.+ ",
"+ n.*.w.q.%.P %.e.w.=.=.w.:.s.s.y.r.s.s.w.:.R U U L L w.w.=.:.:.=.i.j.f.U :.e.r.:.y.w.w.R :.:.e.t.:.w.:.t.=.0.:.%.>.:.e.e.w.n.+ ",
"+ 2 2 $ , * < - , - + - , & - 1 , + , > - $ , - , $ - - , , - , 3 , , > , , 4 - , , < , , $ & , , , & , , , , , 1 - 1 < , , , . ",
"` { { 8 2 r - , , 2 $ ^ | } } | } ~ , , - , , - - ^ [ | } } { ~ - , + , , , p [ } [ } | { q , , < , , , q { } } ` / ] 0 - 2 2 2 ",
"{ } : o $ ; < + + X ~ ` | { | | Q + + + - X + + W } { | { } Q & X + $ X + : { [ [ ` { ` 9 + o + + * + 6 ` { { } [ ^ 9 & - & - , ",
"_ @.O 0.y H + *.l ( o.} F.5.L.X.x w.+ + > x c 2.} D.I.| o.#.+ r.+ n w.. y.c.L.+.3.L.[ h.+ U + n n x x F.F.3.P.{ O.<.X n z - 9.4 ",
"= C.+ E.U V.O E.1.L.T.5.~.} W t.e.=.U + z k.E F.D.T.D.R.c.Z.X W.T k.v K ` K.[ K.I.c.y.S.+ C.n j.+ ,.` 5.D.{ Q.O.k.M j.=.A.+ n.1 ",
"+ M.o n.P e.-.~.L.P.D.G.Q.#.5 Y T m.o & N 6.{ { 7.c.} Q.w.j.9.Z.  L N.3.` !._ I.x.S.+ A.& m.9.*.# _ { L.F.{ E.i.R O m.Y s.9.C.9 ",
"o f.l A.A =.W W.L.c.Y.} J.z y.x n q.0.. ~ Q.5.G.` U.F.C Y w.  N.z m.z.+.[ Q._ K.y.R I q.x Z.+ g.4.Y.` K.K.` A.O e.i.l Z R + B. .",
"& O . o . w _ _ ` [ { E & + + + + + + W [ | _ ` { Q & & X X > + : _ [ _ / [ _ = + X   X + + 6 ` { ` } { { 9 & . * $ + & + 9 { ..",
"o +   O D w / / / / W + o X &   + + ! / / ' / ' D o o &   X   : ^ / / / / / : X o + X + - ; ^ ] / / ' / 7 $ + $ % + & O = ' / ] "
};
