/* XPM */
static char *cd9d606fdb624268fcc205c8846f5995Sx06Vz7hercziDJN[] = {
/* columns rows colors chars-per-pixel */
"64 64 130 2 ",
"   c #051504",
".  c #0D1B05",
"X  c #0C1A09",
"o  c #111B03",
"O  c #111C0C",
"+  c #15220B",
"@  c #18240C",
"#  c #152110",
"$  c #192312",
"%  c #1B2911",
"&  c #1C2818",
"*  c #202C14",
"=  c #222C1B",
"-  c #243216",
";  c #253219",
":  c #29361B",
">  c #2C3A1B",
",  c #243221",
"<  c #293524",
"1  c #2E3921",
"2  c #2D3928",
"3  c #303726",
"4  c #313B23",
"5  c #393D26",
"6  c #333C2B",
"7  c #393F2D",
"8  c #353F31",
"9  c #364221",
"0  c #3B4624",
"q  c #3D4926",
"w  c #37412E",
"e  c #3B422E",
"r  c #3F492A",
"t  c #374131",
"y  c #3C4433",
"u  c #3F4739",
"i  c #3F4939",
"p  c #41472F",
"a  c #434B2C",
"s  c #424633",
"d  c #444A36",
"f  c #4B4D36",
"g  c #414739",
"h  c #444B3C",
"j  c #4A4E3A",
"k  c #4B5333",
"l  c #47503E",
"z  c #4C523C",
"x  c #545E37",
"c  c #52543B",
"v  c #52583F",
"b  c #5A5E3D",
"n  c #5D633B",
"m  c #5E6839",
"M  c #626C3F",
"N  c #464E42",
"B  c #494F42",
"V  c #475041",
"C  c #4C5343",
"Z  c #4E5649",
"A  c #4F584B",
"S  c #525644",
"D  c #525944",
"F  c #5C5C44",
"G  c #51574B",
"H  c #535A4B",
"J  c #50584D",
"K  c #525A4D",
"L  c #545C4D",
"P  c #5A5E4D",
"I  c #525A52",
"U  c #535B52",
"Y  c #565E52",
"T  c #5A5E51",
"R  c #605C43",
"E  c #5E6245",
"W  c #5C604E",
"Q  c #586052",
"!  c #5A6153",
"~  c #5C6052",
"^  c #5A6255",
"/  c #5E6254",
"(  c #5A625A",
")  c #5E6458",
"_  c #5E665A",
"`  c #5E645C",
"'  c #626241",
"]  c #606043",
"[  c #646047",
"{  c #646647",
"}  c #686447",
"|  c #626A41",
" . c #626845",
".. c #646A47",
"X. c #666A47",
"o. c #686A47",
"O. c #626249",
"+. c #62614C",
"@. c #66664D",
"#. c #6B644D",
"$. c #6A6A4D",
"%. c #68684F",
"&. c #626554",
"*. c #666656",
"=. c #696653",
"-. c #646856",
";. c #6B6853",
":. c #61665B",
">. c #62665A",
",. c #62685C",
"<. c #63695D",
"1. c #686858",
"2. c #69695B",
"3. c #74725E",
"4. c #646B62",
"5. c #666C60",
"6. c #696E64",
"7. c #697065",
"8. c #6A7068",
"9. c #6B726A",
"0. c #6E726A",
"q. c #737262",
"w. c #727468",
"e. c #70766C",
"r. c #73766D",
"t. c #727A70",
"y. c #777970",
"u. c #7B7D74",
"i. c #7B7F77",
"p. c #838576",
/* pixels */
"g d y h C y d t t i ( :.0.g N g B u Z Z N g B y g g d h h 2 y y Z h h y d y t t u y N j h N C h N _ ,.e.V t i g u g d 2 t y D t ",
"g y y y z t i d y 2 C i.( 6 6 6 6 < 3 8 3 6 u 8 z D D Z Z y I C h u V u C A l h K y V V C V V # & Z y./ h 6 h i y d V N Z A D l ",
"g 8 t i h t y g h 2 K z T 6 6 6 8 < 6 t 6 6 8 y l D D D H t j H t i C i Z i g l N h h C D D D @ & S C Y d 6 c l l i Z h V ( K V ",
"# : 2 u C y g D d , j j c 6 6 6 7 < 6 s 8 < < N l z v V Q t h h u d A u d i d d z s h C V v K O & j j C u , e t i d l i I N t # ",
"= : & O O + O . X = c c S O . X X . + O O + O + + . . X X . O @ + X X . X O @ . O o . X @ O + O = Z c C . @ # . X X . + O = : ; ",
"e 6 9 4 4 1 > 4 1 e ^ *.3.1 > > > > > > : 1 4 1 > 2 4 > 6 4 > > > > : > 4 1 2 > 4 4 > > 4 1 1 : e ( ( 2.2 : : > > > > 1 > 9 4 e ",
"E k R o.$.| @.X.{ S 8.0.p.n M m $.{ | { @.X.$.M { X.{ $.| M X.n m m @.{  .%.X.X.X.{ @.@.X.$.M { c 8.e.p.M  .n m m @.{ | { R a E ",
"f ; d #.[ x ] F ] z I I :.R x b ] b x R E #.+.x E F R F F F F ] b x E b { [ n E ] ] F F } +.x F z I K 2.E F [ b b ] b x [ a , f ",
"* o 3 f d 0 s d a e D S D a 9 q 9 a 0 a s f d 0 p d a s a a a a 9 0 9 a d f a a d a s a j d 0 p s v c v q a a 9 q 9 a 0 s > O * ",
"# X % * ; : : > > 4 g y z , 1 1 1 ; : : > - = : : : : > : = ; , > 1 1 ; : - % ; : > 1 : - = > : 1 d d z = - < > 1 1 ; : ; %   @ ",
"X X O $ O @ @ O @ & 6 8 d @ @ @ % # @ @ + @ # @ @ @ + @ % $ $ @ @ # @ $ # # @ + @ $ @ O # $ @ @ = 6 2 d $ $ @ @ @ @ $ @ @ O   # ",
"X   . X o O X o X & , , 6 + X . X X X . o X o X . . X O X X @ + . X X X o X X X . o O o X . X X $ , , 6 X @ + . . X X X . X   X ",
"X X # $ $ & = & & $ & & , & & & & & % + $ & & $ $ & & & % $ & & & & & $ & & & & & & & & & & & @ $ & & < & $ & & & & & $ & O X X ",
"$ < y h N y S F H < 2 2 y s t d h w d h h y N t Z V C Z H h C Z Z Z Q t t y y t u g C C C d C h 2 2 2 t 4.w u u N h N 2 t , , & ",
"h v S D D N K D g w V 7.T d 8 y g d c g j j Y h I I K G Q N Q Q T I ( d h g d y h z &.Q I I ( V h V 7.Y C i t h V V Z e s u h 6 ",
"D z d v H B Y Q I t L C 2.f t 7 d g d s h k Z h I Z N B / D &.) Q I ( g D v l z K S &.P ^ Q ` V y L V 2.A d h d C D F y d c h u ",
"h d h s h g S S V , 6 6 2 s 8 y g 6 6 t t s y t y d y y l f V C V N C e d z d d l f E H l l Q y < t w t Z d i t h h j 6 y y t 7 ",
"P D h C L S 2.T ` 4.4.N Y Y ( Y 1.V Y K F K W h F H Q Q W V ^ Q ( L Q w A K H H H l D H Q W _ A _ ( ,.4.7.^ 7._ ^ H Q l I Q Y Y ",
"D d y d S N ^ Q Q I ` i I I I I Y h Y I I C F g v c z c D l Y I Y K F y v H c z C d v v v v D V I Q L ,.` C <.Q Q H L h I K I L ",
"P c s t C C _ Q ^ ` ` h I Y I I P j ^ &.Q I Y d D c c c D V Q Y / T L w c v D z C g W D A D W V Y H ,./ ,.j Q Q Q Q ( i I I I C ",
"P c c g G Z 4.,.` 4.8.h I Y I I F l &.^ ^ / ( s D c c c F z W Q &.Y Y 2 z v v f z i H H T I A V ,.Q / ^ ,.h U I Q Q 2.s C c C d ",
"P c c K G C ^ ^ _ 4.,.h I I I C H l W Q Q Q ( a c c c c D c +.Q Q Q ( 2 c v d y z d v L ^ D Q V _ Q / 7._ h I I Y Q ( s c c S j ",
"L 8 j D S j Q Q &.Q _ s G G C c F d I I I I ( s c S S S Q C &.:.^ Q ,.s y z d d z s D Z D Z W C Q ` 4.` _ h U I I I 2.y c S A N ",
"S z s s K j / _ 4.T 1.g v V c c D l I I I I ( s c A I I ( S #./ Q Q _ 2 j j s d V d Z H v U L V Q 4.e.6._ h K H Y I _ s c K I C ",
"T S c v S j T ;.:.+.<.d z V C c E h Y / / Y 2.s v I I I / S #.Y W &.8.t Z v d d S g I Z D D Q z Y _ 0.6.4.h H c I Q ) s c I I N ",
"D c c v H h Y I Y I 4.g G G v c F h Q ^ =./ 2.d c A Y z F F &.4.P ) 8.e l v C z Z d I I I I ,.h / &.( 6.8.h I Z I I :.h H I T V ",
"j t s s g t N h h h C 7 h g d p f d h H V c P 6 u h h u h z V z z V Z 2 d y y d g 6 h h h h C y N h c P &.t h h h h S w h j j h ",
",.Y 1.5.4.D 2._ 2.2.6.t S c c c c y f c f S T S Y ( ( Y / C T T Q Q _ < d ( ^ ` 4.G ,.:._ :.L g D H S D &.h G D H D 1.y c f j d ",
"( I / &._ z +.I I +.:.6 v c c c c 2 d s f c S h I I I H F z P I I I ( N E Z Z Q 4.g Y Y I D H s c S S C H u D Z S I ( 2 g f d e ",
"T I K _ :.h I I Y &._ 2 s S c y j e f f j c G g I I I D S N Y I Z I ( N A Q ^ Q 4.h I I I D S s c D D z K u T I A Z / 6 d d s 7 ",
"( I Y Q _ h I I I Y ,.w D c z j h e t s c c S h I H S v H h H D v Y ,.i W Q Q Y ^ h H I Z C C s v C H Y ( N I I I A Y 6 t e t s ",
"^ I Y &._ h I I C I ( s c c d d f d c d c c j g I C c D H d z c D U _ l ^ ^ _ Q Y y D C D D K s S I ^ I ( h I I I I Y s f d z h ",
"I I I Q ,.d &.I A I ( s v v t d c s c c c c B d v H c c L d v D H Q ` h ^ _ 4.^ L s h j c C G s S I I I _ y K Q I I P s c z d f ",
"I I ^ Q ` j #.P I I ( 6 s h z c c d c c c c H s c c D v H h c C U +.Y N Y *.&.Y ( y v c v H K p c S I I T y D H D v H 6 7 d t j ",
"I Q :.4._ h ^ Y I I ,.3 t e v y c d v f f c S s v D H A ^ h I Z Z Q Y i Y Y ;.Y :.N c c v z D s c D / Y ^ d D H k v D 2 s y d s ",
"Y ^ 4._ 2.z Y I I Q ( 2 s t d d c s D 8 7 7 C d z I U U ( h I I Y Q ^ h I Y Q Y 4.C U Z S v H d c C ^ ^ _ d H D D S D 6 y s f 2 ",
"h C C D P t h h j h S 1 2 2 2 2 p 5 d 7 6 6 g 6 y h h i B t l j j j I y h N h h V y h N h s h 6 s c h C K 7 d e s s d 2 2 2 6 y ",
"` H H H F C T P F K ^ N Q E H W 6.d D G H D H 6 d z h d S S 2.2.` ,.6.C Y Y / Q Y Z T ( ( <.4.N ( 2.5.5.4.S _ _ _ :.4.j F S N C ",
",.v c D K g I Z c I Y d D c v S :.d S S c S C 4 f s d c c C T I I I ( h I A C D S h I H G I <.h Q / Y I Y S / Q Q / 4.s c d w j ",
"-.D v z D s S D c c F s c c c z T p v z y h j 2 f 7 f c j h I I L H Q i K v D D H g I H K I ` h Q Q Q Q 4.H &.Y Y _ w.p f f d z ",
"-.z c C D d c v c v S i K S v z T g v y y e d 2 f 6 d c c h I Y L G H d V y d D H N I Z I I ( h ^ Q U Q ` j ^ / &.,.e.d c v c c ",
"<.v v z F e c c c S S j K c S v Y y v v z d z 6 z c z z d g I I T Y T g D z z b Z d A H c I Y N Q Y I I 4.D _ _ ` ,.6.s D c c d ",
"5.H K U D e v K S S H g c c D z ( d C v c v C y h y d c c h I I H D Y d v H z c E i v H K I ` N Q Y Y I ` / ) ` 4.4.t.s j f d d ",
"<.U U D S g D v c c S s c c D H ( s v D c c H d d d d f c h S S v D H y Z H D D H y v D U U ,.i I I Y U ( K 6.4.4.4.i.u d f y y ",
"` c c c S u D c c c N s S S G G ^ d v D c c D d d g d y y u C I Z D H d Z v c c H i U U Q I _ h C A I D L L e.4.8.r.e.w w s c j ",
",.c f c S d c S H c S d I I S c +.g D c c v Z d h y z y d d H I Z Z U d v v c G W h / Q Q W ( h I I H Z L Z 4.4.4.5.r.e c d t y ",
"D y 2 2 g 5 d g h h d t h h h d j w d e p d d 2 2 6 e 2 w e h h y y j w d d u h z e h S C h N t h h j i N h P Z Z W &.6 e e 6 6 ",
"_ 5.t.8.8.Q q.2.1.,.2.C :.R R T *.d j d d S z w z 6 6 6 u d L D H H ,.i Z D D S P e c c k c z e j S C C z Z K Q ( / :.w d c z h ",
"&.4._ 2.8.B P / #.@.6.u I G c Z ` g z v f c S 6 w 4 6 6 6 d z Z c v H u v c f c S e d y d d d 2 h d s f D g K H I Z +.2 s c c d ",
"_ ^ Q :.2.h I Y &.2.4.N I I A I T 6 S D z c U w u 2 6 7 d d c D D S Y s d d t d j 2 8 t s z d 2 d f j t C h I K I Z F 2 d d d d ",
"Q Q / / :.d &.2.4.6.6.h I I I I :.s c c c c H 2 z f s z y u c D Z U T y c d y y j 3 s 7 t y d y l P L D D j V D I H D 2 e y c d ",
"Q _ _ P 2.v =.,.4.4.4.s Y I I I :.0 c c c c S 6 z d 7 d e d D H D I T e j c d f l 2 y u t s j p D H D c D e c v C D W w h f c y ",
"_ ` ^ ^ / D ` ,.-.^ :.h I I I I Y e c v H Y K 6 f 3 f v f s D C Z I 2.t u d t u j 2 y y u s z s D H H D H e D D ^ I P 6 d 6 t B ",
"Q ^ Q Y ^ l Q Q Q *.,.u K K I I Y e c H D l V e 6 s c 8 y h c D H U ( e s s s d h 6 t t g s h d K L D c D d K D C K Q e 7 5 d y ",
"Q I Y I ( j Y Y U Q 2.s S D I K H 6 y v S d C s 6 3 7 7 7 h c D I I Q w t d d d z 6 u e t d V s v c D c D h I K S Y H < 4 f z s ",
"Y Z Z I Q g I Q I Q ( s c c c c S 2 e l C d C t s 3 = 7 8 d H G I Z K 6 s e f y h 2 h t t d l d D c S H S h I A D D T 6 d c z s ",
"g i t s i t h h c C D 6 d e e e g ; 6 6 y e y 2 6 $ 2 , 8 6 g g h y N 6 6 2 6 2 e < 2 6 w 2 e 6 d d s y 6 8 B g e y B = 6 e y 2 ",
"h K Y ( ,./ 8.6.8.0.t.e d g j V P y C B v v D , 6 6 7 6 d 6 s 7 s t y 6 6 y s d u 6 d d d l D t d z S d C 7 8 p e s t < y d D s ",
"f S I I ` Y _ _ ,.2.8.e f y y d R 7 d f f j c < 6 < 2 6 8 6 s 3 6 6 6 < 6 6 3 6 6 6 e d d i h d z l d t d < 6 6 6 3 7 < 7 s 4 6 ",
"V I I I T L 4./ Y Y ` s c y d s R 7 c f c j h 1 6 3 , 6 s e 6 6 4 6 6 t g 6 4 6 s e c p k u h s b H j y h < 6 6 y 6 8 < 6 6 6 6 ",
"V I S V R G 4.&.I I T s c f f y F 7 u j j y N 3 6 3 3 7 7 < 7 6 6 4 s s c 7 3 7 c 6 j f k c v d D c h k C = 6 6 6 6 y 3 6 6 6 < ",
"B I c z L C / I I I 4.p c c k d D e y C f h B < 6 3 7 7 f < s y 6 6 s < 6 6 6 6 y e d c g s l d c c f c G $ < 7 6 t 7 < 3 6 7 < ",
"j D D I T B I I I I _ y c c v S H e c D c c Y < 6 6 6 5 s 7 8 8 3 6 s , 6 6 3 6 7 s c f u s h d c c z D :.& = 6 6 6 g 6 7 s 6 6 ",
"h c C I Y h I I I I ( s S v S v D 7 c S c c S 6 3 4 6 8 8 3 7 6 7 3 6 < 6 6 6 3 6 d z f s y j p c c v H L , # < 6 3 7 < 6 6 6 6 "
};
